<svg aria-hidden="true" style="position: absolute; width: 0; height: 0; overflow: hidden;" version="1.1" xmlns="http://www.w3.org/2000/svg" xmlns:xlink="http://www.w3.org/1999/xlink">
<defs>
<symbol id="icon-basket" viewBox="0 0 32 32">
<path  d="M28.992 7.153l-0.707-2.118c-0.269-0.807-1.021-1.349-1.871-1.349h-5.938v-1.933c0-0.966-0.786-1.753-1.752-1.753h-5.438c-0.966 0-1.752 0.786-1.752 1.753v1.933h-5.938c-0.85 0-1.603 0.542-1.872 1.349l-0.707 2.118c-0.161 0.482-0.079 1.016 0.218 1.428s0.778 0.659 1.286 0.659h0.739l1.625 20.1c0.121 1.491 1.386 2.66 2.882 2.66h12.804c1.495 0 2.761-1.169 2.882-2.66l1.625-20.1h0.409c0.508 0 0.989-0.246 1.286-0.658s0.379-0.947 0.218-1.429zM13.41 1.875h5.191v1.811h-5.191v-1.811zM23.585 29.189c-0.043 0.525-0.487 0.936-1.013 0.936h-12.804c-0.525 0-0.97-0.411-1.013-0.936l-1.614-19.949h18.056l-1.613 19.949zM4.924 7.365l0.579-1.737c0.013-0.040 0.051-0.067 0.093-0.067h20.818c0.042 0 0.079 0.027 0.093 0.067l0.579 1.737h-22.162z"></path>
<path  d="M20.595 29.122c0.017 0.001 0.033 0.001 0.050 0.001 0.495 0 0.909-0.388 0.935-0.889l0.88-16.9c0.027-0.517-0.371-0.958-0.887-0.985-0.518-0.028-0.958 0.37-0.985 0.887l-0.88 16.9c-0.027 0.517 0.37 0.958 0.887 0.985z"></path>
<path  d="M10.473 28.237c0.027 0.5 0.441 0.886 0.935 0.886 0.017 0 0.035-0 0.052-0.001 0.517-0.028 0.913-0.47 0.885-0.987l-0.922-16.9c-0.028-0.517-0.47-0.913-0.987-0.885s-0.913 0.47-0.885 0.987l0.922 16.9z"></path>
<path  d="M16.016 29.124c0.518 0 0.938-0.42 0.938-0.938v-16.9c0-0.518-0.42-0.938-0.938-0.938s-0.938 0.42-0.938 0.938v16.9c0 0.518 0.42 0.938 0.938 0.938z"></path>
</symbol>
<symbol id="icon-additional" viewBox="0 0 24 32">
<path d="M7.67 19.346c0-0.259-0.21-0.469-0.469-0.469h-4.546c-0.259 0-0.469 0.21-0.469 0.469v3.030c0 0.259 0.21 0.469 0.469 0.469h4.546c0.259 0 0.469-0.21 0.469-0.469v-3.030zM6.733 21.908h-3.608v-2.093h3.608v2.093z"></path>
<path d="M18.819 21.835h2.525c0.259 0 0.469-0.21 0.469-0.469s-0.21-0.469-0.469-0.469h-2.525c-0.259 0-0.469 0.21-0.469 0.469s0.21 0.469 0.469 0.469z"></path>
<path d="M18.819 19.815h2.525c0.259 0 0.469-0.21 0.469-0.469s-0.21-0.469-0.469-0.469h-2.525c-0.259 0-0.469 0.21-0.469 0.469s0.21 0.469 0.469 0.469z"></path>
<path d="M23.364 24.402c-0.259 0-0.469 0.21-0.469 0.469v6.029c0 0.090-0.073 0.163-0.163 0.163h-21.466c-0.090 0-0.163-0.073-0.163-0.163v-10.373c0-0.259-0.21-0.469-0.469-0.469s-0.469 0.21-0.469 0.469v10.373c0 0.607 0.494 1.1 1.1 1.1h21.466c0.607 0 1.1-0.494 1.1-1.1v-6.029c0-0.259-0.21-0.469-0.469-0.469z"></path>
<path d="M22.733 15.91h-7.739v-2.378c2.422-1.131 4.104-3.59 4.104-6.435 0-3.914-3.184-7.098-7.098-7.098-1.358 0-2.679 0.385-3.818 1.113-1.109 0.709-1.998 1.708-2.571 2.89-0.113 0.233-0.016 0.513 0.217 0.626s0.513 0.016 0.626-0.217c1.040-2.144 3.165-3.475 5.546-3.475 3.397 0 6.16 2.764 6.16 6.16s-2.764 6.16-6.16 6.16c-3.397 0-6.16-2.764-6.16-6.16 0-0.239 0.014-0.481 0.041-0.717 0.030-0.257-0.155-0.49-0.412-0.52s-0.49 0.154-0.52 0.412c-0.032 0.272-0.048 0.55-0.048 0.825 0 2.845 1.682 5.303 4.104 6.435v2.378h-7.739c-0.607 0-1.1 0.494-1.1 1.1v1.318c0 0.259 0.21 0.469 0.469 0.469s0.469-0.21 0.469-0.469v-1.318c0-0.090 0.073-0.163 0.163-0.163h6.101l4.279 4.891c0.089 0.102 0.218 0.16 0.353 0.16s0.264-0.058 0.353-0.16l4.279-4.891h6.101c0.090 0 0.163 0.073 0.163 0.163v5.66c0 0.259 0.21 0.469 0.469 0.469s0.469-0.21 0.469-0.469v-5.66c-0-0.607-0.494-1.1-1.1-1.1zM12 20.718l-3.386-3.87h0.861c0.259 0 0.469-0.21 0.469-0.469v-2.487c0.651 0.198 1.342 0.304 2.057 0.304s1.405-0.107 2.057-0.304v2.487c0 0.259 0.21 0.469 0.469 0.469h0.861l-3.386 3.87z"></path>
<path d="M2.656 27.454h1.263c0.259 0 0.469-0.21 0.469-0.469s-0.21-0.469-0.469-0.469h-1.263c-0.259 0-0.469 0.21-0.469 0.469s0.21 0.469 0.469 0.469z"></path>
<path d="M7.202 26.517h-1.263c-0.259 0-0.469 0.21-0.469 0.469s0.21 0.469 0.469 0.469h1.263c0.259 0 0.469-0.21 0.469-0.469s-0.21-0.469-0.469-0.469z"></path>
<path d="M10.485 27.454c0.259 0 0.469-0.21 0.469-0.469s-0.21-0.469-0.469-0.469h-1.263c-0.259 0-0.469 0.21-0.469 0.469s0.21 0.469 0.469 0.469h1.263z"></path>
<path d="M13.768 27.454c0.259 0 0.469-0.21 0.469-0.469s-0.21-0.469-0.469-0.469h-1.263c-0.259 0-0.469 0.21-0.469 0.469s0.21 0.469 0.469 0.469h1.263z"></path>
<path d="M2.656 29.98h5.051c0.259 0 0.469-0.21 0.469-0.469s-0.21-0.469-0.469-0.469h-5.051c-0.259 0-0.469 0.21-0.469 0.469s0.21 0.469 0.469 0.469z"></path>
<path d="M15.824 28.248c0 0.955 0.777 1.731 1.732 1.731 0.498 0 0.947-0.211 1.263-0.549 0.316 0.337 0.765 0.549 1.263 0.549 0.955 0 1.731-0.777 1.731-1.731s-0.777-1.732-1.731-1.732c-0.498 0-0.947 0.211-1.263 0.549-0.316-0.337-0.765-0.549-1.263-0.549-0.955 0-1.732 0.777-1.732 1.732zM20.081 27.454c0.438 0 0.794 0.356 0.794 0.794s-0.356 0.794-0.794 0.794-0.794-0.356-0.794-0.794c0-0.438 0.356-0.794 0.794-0.794zM18.35 28.248c0 0.438-0.356 0.794-0.794 0.794s-0.794-0.356-0.794-0.794c0-0.438 0.356-0.794 0.794-0.794s0.794 0.356 0.794 0.794z"></path>
<path d="M10.447 9.551c-0.216-0.142-0.507-0.081-0.649 0.136s-0.081 0.507 0.136 0.649c0.606 0.396 1.020 0.514 1.555 0.543v0.517c0 0.259 0.21 0.469 0.469 0.469s0.469-0.21 0.469-0.469v-0.554c1.063-0.207 1.683-1.082 1.821-1.9 0.176-1.050-0.373-1.962-1.399-2.325-0.138-0.049-0.28-0.1-0.422-0.154v-2.248c0.358 0.084 0.571 0.265 0.589 0.281 0.19 0.173 0.485 0.16 0.659-0.030 0.176-0.19 0.164-0.487-0.027-0.662-0.027-0.025-0.48-0.433-1.222-0.543v-0.462c0-0.259-0.21-0.469-0.469-0.469s-0.469 0.21-0.469 0.469v0.497c-0.071 0.016-0.144 0.034-0.218 0.056-0.676 0.204-1.181 0.782-1.318 1.509-0.125 0.663 0.087 1.302 0.554 1.668 0.248 0.195 0.557 0.373 0.981 0.562v2.848c-0.37-0.026-0.623-0.116-1.042-0.389zM11.086 5.794c-0.19-0.149-0.271-0.439-0.211-0.757 0.054-0.286 0.244-0.63 0.614-0.767v1.781c-0.152-0.082-0.289-0.167-0.403-0.257zM12.536 7.502c0.879 0.311 0.824 1.063 0.787 1.286-0.073 0.437-0.379 0.9-0.896 1.082v-2.407c0.036 0.013 0.072 0.026 0.109 0.039z"></path>
</symbol>
<symbol id="icon-alcohol" viewBox="0 0 26 32">
<path d="M25.598 3.916h-16.040c-0.181-1.016-0.688-1.946-1.455-2.655-0.88-0.814-2.026-1.262-3.226-1.262-2.622 0-4.756 2.133-4.756 4.756s2.134 4.756 4.756 4.756c0.481 0 0.955-0.073 1.411-0.215 0.715 0.675 1.602 1.18 2.603 1.44 0.647 0.168 1.138 0.702 1.252 1.36l0.604 3.496c0.213 1.235 0.9 2.306 1.935 3.015 0.785 0.538 1.253 1.414 1.253 2.345v7.125c-0.362 0.229-0.594 0.633-0.594 1.078 0 0.014 0 0.027 0.001 0.041-1.186 0.242-2.163 0.466-2.905 0.664-0.505 0.135-0.886 0.254-1.165 0.364-0.26 0.102-0.744 0.293-0.744 0.736 0 0.595 0.773 0.696 1.394 0.778 0.534 0.070 1.273 0.128 2.198 0.174 1.562 0.076 3.144 0.089 3.16 0.089 0.001 0 0.002 0 0.004 0s0.002 0 0.004 0c0.016-0 1.598-0.013 3.16-0.089 0.925-0.045 1.664-0.104 2.198-0.174 0.621-0.082 1.394-0.183 1.394-0.778 0-0.47-0.434-0.713-2.018-1.129-0.96-0.252-2.156-0.506-3.015-0.68-0.001-0.343-0.137-0.663-0.375-0.899v-7.3c0-0.931 0.468-1.807 1.253-2.345 1.035-0.709 1.722-1.78 1.935-3.015l0.604-3.496c0.114-0.658 0.605-1.192 1.252-1.36 2.169-0.564 3.8-2.274 4.316-4.381 0.002-0.008 0.004-0.016 0.006-0.024 0.109-0.453 0.167-0.924 0.167-1.406v-0.443c0-0.312-0.254-0.566-0.566-0.566zM4.877 8.562c-2.099 0-3.806-1.707-3.806-3.806s1.708-3.806 3.806-3.806c0.96 0 1.877 0.359 2.581 1.010 0.572 0.528 0.963 1.21 1.131 1.957h-0.486c-0.376-1.448-1.695-2.494-3.226-2.494-1.838 0-3.334 1.496-3.334 3.334s1.496 3.334 3.334 3.334c0.137 0 0.274-0.009 0.411-0.026 0.091 0.149 0.189 0.293 0.292 0.433-0.231 0.043-0.466 0.065-0.703 0.065zM6.331 3.302c-0.185-0.185-0.486-0.185-0.671 0l-0.142 0.142c-0.128 0.128-0.168 0.31-0.119 0.472h-0.43c-0.312 0-0.566 0.254-0.566 0.566v0.443c0 0.482 0.058 0.952 0.167 1.405 0.002 0.009 0.004 0.017 0.006 0.026 0.066 0.267 0.149 0.529 0.249 0.782-1.291-0.028-2.332-1.086-2.332-2.383 0-1.315 1.070-2.385 2.385-2.385 1.009 0 1.889 0.635 2.232 1.545h-0.73c0.135-0.186 0.119-0.447-0.048-0.614zM16.748 30.068c1.669 0.336 2.717 0.59 3.373 0.774-1.2 0.118-3.124 0.195-4.838 0.208-1.714-0.013-3.638-0.090-4.838-0.208 0.627-0.176 1.613-0.416 3.158-0.731 0.427-0.087 0.723-0.487 0.688-0.93-0.001-0.008-0.001-0.017-0.001-0.026 0-0.147 0.099-0.276 0.242-0.315 0.208-0.056 0.352-0.244 0.352-0.459v-7.43c0-0.625-0.157-1.231-0.446-1.771 0.265 0.017 0.555 0.026 0.845 0.026s0.58-0.009 0.845-0.026c-0.289 0.539-0.446 1.145-0.446 1.771v7.526c0 0.163 0.084 0.314 0.221 0.401 0.096 0.061 0.153 0.164 0.153 0.276 0 0.007-0 0.014-0.001 0.021-0.027 0.424 0.27 0.807 0.692 0.892zM25.215 4.926h-0c0 0.285-0.024 0.566-0.070 0.841h-14.294c-0.262 0-0.475 0.213-0.475 0.475s0.213 0.475 0.475 0.475h14.036c-0.568 1.499-1.831 2.68-3.45 3.102-1.007 0.262-1.772 1.093-1.948 2.117l-0.604 3.496c-0.169 0.98-0.715 1.83-1.536 2.393-0.127 0.087-0.506 0.291-0.575 0.322-0.376 0.148-2.601 0.148-2.98 0-0.069-0.030-0.447-0.235-0.575-0.322-0.821-0.563-1.367-1.413-1.536-2.393l-0.604-3.496c-0.177-1.024-0.942-1.855-1.948-2.117-0.916-0.238-1.719-0.72-2.346-1.365-0.015-0.018-0.031-0.035-0.048-0.051-0.458-0.484-0.819-1.057-1.057-1.686h2.962c0.262 0 0.475-0.213 0.475-0.475s-0.213-0.475-0.475-0.475h-3.22c-0.046-0.274-0.070-0.555-0.070-0.841v-0.060h19.863v0.060z"></path>
</symbol>
<symbol id="icon-calculator" viewBox="0 0 64 32">
<path  d="M58.786 1.571h-53.572c-1.479 0-2.679 1.199-2.679 2.679v21.786c0 1.479 1.199 2.679 2.679 2.679h53.572c1.479 0 2.678-1.199 2.678-2.679v-21.786c0-1.479-1.199-2.679-2.678-2.679zM56.107 23.357h-48.214v-16.429h48.214v16.429z"></path>
</symbol>
<symbol id="icon-calendar" viewBox="0 0 36 32">
<path  d="M31.067 1.897h-2.332v-0.571c0-0.575-0.466-1.042-1.042-1.042s-1.042 0.466-1.042 1.042v0.571h-2.875v-0.571c0-0.575-0.466-1.042-1.042-1.042s-1.042 0.466-1.042 1.042v0.571h-2.875v-0.571c0-0.575-0.466-1.042-1.042-1.042s-1.042 0.466-1.042 1.042v0.571h-2.874v-0.571c0-0.575-0.466-1.042-1.042-1.042s-1.042 0.466-1.042 1.042v0.571h-2.874v-0.571c0-0.575-0.466-1.042-1.042-1.042s-1.042 0.466-1.042 1.042v0.571h-2.332c-2.475 0-4.488 2.013-4.488 4.488v20.843c0 2.475 2.013 4.488 4.488 4.488h26.579c2.475 0 4.488-2.013 4.488-4.488v-20.843c0-2.475-2.013-4.488-4.488-4.488zM33.472 27.228c0 1.326-1.079 2.405-2.405 2.405h-26.579c-1.326 0-2.405-1.079-2.405-2.405v-17.037h31.389v17.037zM33.472 8.108h-31.389v-1.723c0-1.326 1.079-2.405 2.405-2.405h2.332v0.403c0 0.575 0.466 1.042 1.042 1.042s1.042-0.466 1.042-1.042v-0.403h2.874v0.403c0 0.575 0.466 1.042 1.042 1.042s1.042-0.466 1.042-1.042v-0.403h2.874v0.403c0 0.575 0.466 1.042 1.042 1.042s1.042-0.466 1.042-1.042v-0.403h2.875v0.403c0 0.575 0.466 1.042 1.042 1.042s1.042-0.466 1.042-1.042v-0.403h2.875v0.403c0 0.575 0.466 1.042 1.042 1.042s1.042-0.466 1.042-1.042v-0.403h2.332c1.326 0 2.405 1.079 2.405 2.405v1.723z"></path>
</symbol>
<symbol id="icon-communal" viewBox="0 0 32 32">
<path d="M30.679 0h-29.358c-0.451 0-0.819 0.369-0.819 0.819s0.369 0.819 0.819 0.819h1.768v29.522c0 0.3 0.164 0.58 0.43 0.724s0.587 0.13 0.84-0.041l3.557-2.369 3.571 2.376c0.273 0.184 0.635 0.184 0.908 0l3.557-2.369 3.571 2.376c0.273 0.184 0.635 0.184 0.908 0l3.557-2.369 3.571 2.376c0.137 0.089 0.294 0.137 0.451 0.137 0.13 0 0.266-0.034 0.389-0.096 0.266-0.143 0.43-0.423 0.43-0.724l-0.014-29.522h1.864c0.451 0 0.819-0.369 0.819-0.819s-0.369-0.84-0.819-0.84zM27.197 29.631l-2.751-1.83c-0.273-0.184-0.635-0.184-0.908 0l-3.557 2.376-3.571-2.376c-0.273-0.184-0.635-0.184-0.908 0l-3.557 2.369-3.571-2.369c-0.273-0.184-0.635-0.184-0.908 0l-2.738 1.823v-27.992h22.462l0.007 27.999z"></path>
<path d="M8.497 13.081h8.582c0.451 0 0.819-0.369 0.819-0.819s-0.369-0.819-0.819-0.819h-8.582c-0.451 0-0.819 0.369-0.819 0.819s0.362 0.819 0.819 0.819z"></path>
<path d="M8.497 15.928h6.431c0.451 0 0.819-0.369 0.819-0.819s-0.369-0.819-0.819-0.819h-6.431c-0.451 0-0.819 0.369-0.819 0.819s0.362 0.819 0.819 0.819z"></path>
<path d="M21.366 13.081h2.144c0.451 0 0.819-0.369 0.819-0.819s-0.369-0.819-0.819-0.819h-2.144c-0.451 0-0.819 0.369-0.819 0.819s0.362 0.819 0.819 0.819z"></path>
<path d="M21.366 15.928h2.144c0.451 0 0.819-0.369 0.819-0.819s-0.369-0.819-0.819-0.819h-2.144c-0.451 0-0.819 0.369-0.819 0.819s0.362 0.819 0.819 0.819z"></path>
<path d="M8.497 6.507h8.582c0.451 0 0.819-0.369 0.819-0.819s-0.369-0.819-0.819-0.819h-8.582c-0.451 0-0.819 0.369-0.819 0.819s0.362 0.819 0.819 0.819z"></path>
<path d="M8.497 9.347h6.431c0.451 0 0.819-0.369 0.819-0.819s-0.369-0.819-0.819-0.819h-6.431c-0.451 0-0.819 0.369-0.819 0.819s0.362 0.819 0.819 0.819z"></path>
<path d="M21.366 6.507h2.144c0.451 0 0.819-0.369 0.819-0.819s-0.369-0.819-0.819-0.819h-2.144c-0.451 0-0.819 0.369-0.819 0.819s0.362 0.819 0.819 0.819z"></path>
<path d="M21.366 9.347h2.144c0.451 0 0.819-0.369 0.819-0.819s-0.369-0.819-0.819-0.819h-2.144c-0.451 0-0.819 0.369-0.819 0.819s0.362 0.819 0.819 0.819z"></path>
<path d="M8.497 19.738h8.582c0.451 0 0.819-0.369 0.819-0.819s-0.369-0.819-0.819-0.819h-8.582c-0.451 0-0.819 0.369-0.819 0.819s0.362 0.819 0.819 0.819z"></path>
<path d="M8.497 22.578h6.431c0.451 0 0.819-0.369 0.819-0.819s-0.369-0.819-0.819-0.819h-6.431c-0.451 0-0.819 0.369-0.819 0.819s0.362 0.819 0.819 0.819z"></path>
<path d="M21.366 19.738h2.144c0.451 0 0.819-0.369 0.819-0.819s-0.369-0.819-0.819-0.819h-2.144c-0.451 0-0.819 0.369-0.819 0.819s0.362 0.819 0.819 0.819z"></path>
<path d="M21.366 22.578h2.144c0.451 0 0.819-0.369 0.819-0.819s-0.369-0.819-0.819-0.819h-2.144c-0.451 0-0.819 0.369-0.819 0.819s0.362 0.819 0.819 0.819z"></path>
</symbol>
<symbol id="icon-education" viewBox="0 0 43 32">
<path d="M41.84 3.242c-0.003 0-0.006 0-0.008 0h-2.804v-0.959c0.015-0.38-0.231-0.721-0.596-0.827-1.946-0.51-3.951-0.766-5.963-0.761-3.308 0-7.815 0.744-11.148 4.135-3.308-3.424-7.849-4.135-11.148-4.135-2.012-0.005-4.016 0.251-5.963 0.761-0.365 0.106-0.611 0.447-0.595 0.827v0.951h-2.787c-0.457 0-0.827 0.37-0.827 0.827v26.415c0 0.457 0.37 0.827 0.827 0.827 0.142-0 0.282-0.037 0.405-0.108 0.083-0.041 8.353-4.565 19.898-1.654h0.198c0.066 0.008 0.133 0.008 0.198 0 11.578-2.936 19.849 1.58 19.898 1.654 0.256 0.148 0.571 0.148 0.827 0 0.254-0.147 0.412-0.418 0.413-0.711v-26.415c0-0.457-0.37-0.827-0.827-0.827zM1.654 29.161v-24.265h1.977v20.742c-0.005 0.457 0.361 0.831 0.818 0.836 0.045 0 0.089-0.003 0.133-0.009 1.711-0.261 3.438-0.399 5.169-0.413 2.397-0.042 4.785 0.319 7.063 1.067-5.145-0.622-10.363 0.081-15.159 2.043zM9.751 24.405c-1.504 0.003-3.007 0.1-4.499 0.289v-21.759c1.61-0.359 3.255-0.542 4.904-0.546 3.093 0 7.361 0.711 10.321 4.052l0.025 20.601c-1.72-1.125-5.078-2.638-10.751-2.638zM22.156 6.442c2.961-3.308 7.228-4.052 10.321-4.052 1.65 0.005 3.294 0.188 4.904 0.546v21.759c-1.484-0.191-2.978-0.291-4.474-0.298-5.64 0-9.006 1.514-10.751 2.638v-20.593zM41.004 29.161c-4.807-1.967-10.037-2.67-15.193-2.043 2.289-0.751 4.688-1.111 7.096-1.067 1.742 0.010 3.48 0.145 5.202 0.405 0.452 0.069 0.873-0.242 0.942-0.694 0.007-0.044 0.010-0.089 0.009-0.134v-20.734h1.977l-0.033 24.265z"></path>
</symbol>
<symbol id="icon-entertainment" viewBox="0 0 30 32">
<path d="M29.138 15.724l-1.285-1.285v-12.228l1.080-1.080c0.212-0.212 0.212-0.555 0-0.767s-0.555-0.212-0.767 0l-1.080 1.080h-12.228l-1.285-1.285c-0.212-0.212-0.555-0.212-0.767 0s-0.212 0.555 0 0.767l1.23 1.23-3.815 16.168c-0.315 0.393-0.42 0.917-0.273 1.407 0.164 0.545 0.612 0.953 1.169 1.066l2.433 0.494c0.461 0.094 0.854 0.385 1.076 0.8s0.249 0.903 0.072 1.339c-0.288 0.71-1.040 1.11-1.789 0.951l-9.115-1.931c-1.373-0.291-2.756 0.488-3.22 1.812-0.269 0.768-0.19 1.613 0.215 2.318s1.096 1.198 1.895 1.352l0.038 0.007c0.718 0.139 1.328 0.588 1.674 1.233s0.381 1.402 0.098 2.076c-0.116 0.276 0.014 0.594 0.29 0.71 0.069 0.029 0.139 0.042 0.209 0.042 0.212 0 0.413-0.125 0.5-0.333 0.41-0.977 0.358-2.073-0.142-3.007s-1.384-1.585-2.424-1.786l-0.038-0.007c-0.489-0.094-0.912-0.396-1.16-0.828s-0.296-0.949-0.132-1.42c0.284-0.811 1.132-1.288 1.972-1.11l9.115 1.931c1.264 0.268 2.533-0.407 3.019-1.604 0.298-0.736 0.254-1.559-0.122-2.259s-1.037-1.192-1.816-1.35l-2.433-0.494c-0.242-0.049-0.323-0.238-0.347-0.316-0.019-0.064-0.047-0.208 0.036-0.354l16.118-3.804 1.23 1.23c0.106 0.106 0.245 0.159 0.383 0.159s0.277-0.053 0.383-0.159c0.212-0.212 0.212-0.555 0-0.767zM26.002 2.528l-5.030 5.030-5.030-5.030h10.060zM14.938 3.057l5.268 5.268-8.522 8.522 3.254-13.79zM12.45 17.613l8.522-8.522 5.268 5.268-13.79 3.254zM26.769 13.355l-5.030-5.030 5.030-5.030v10.060z"></path>
</symbol>
<symbol id="icon-equipment" viewBox="0 0 32 32">
<path d="M31.254 3.845c-0.211-0.049-0.433 0.015-0.585 0.168l-2.591 2.612h-1.242l-1.367-1.417v-1.26l2.554-2.592c0.151-0.153 0.213-0.374 0.163-0.584s-0.204-0.378-0.408-0.447c-0.642-0.216-1.313-0.326-1.996-0.326-2.036 0-3.885 0.949-5.074 2.604-1.113 1.549-1.456 3.448-0.964 5.265l-4.604 4.604-7.67-7.688v-1.509c0-0.219-0.115-0.423-0.303-0.536l-4.419-2.652c-0.246-0.148-0.561-0.109-0.763 0.094l-1.768 1.767c-0.203 0.203-0.241 0.518-0.094 0.764l2.651 4.419c0.113 0.188 0.316 0.303 0.536 0.303l1.508 0 7.671 7.688-4.586 4.586c-1.817-0.491-3.717-0.148-5.267 0.966-1.654 1.188-2.603 3.037-2.603 5.073 0 0.683 0.11 1.354 0.326 1.996 0.069 0.205 0.24 0.36 0.451 0.409s0.433-0.015 0.585-0.168l2.591-2.611h1.249l1.423 1.423v1.249l-2.611 2.591c-0.154 0.153-0.218 0.374-0.168 0.585s0.204 0.382 0.409 0.451c0.641 0.216 1.313 0.326 1.996 0.326 2.036 0 3.884-0.949 5.073-2.603 1.114-1.55 1.457-3.45 0.966-5.267l3.683-3.683 0.844 0.916-0.387 0.387c-0.244 0.244-0.244 0.64 0 0.884s0.64 0.244 0.884 0l0.351-0.351 7.916 8.599c0.006 0.006 0.012 0.012 0.018 0.019 1.465 1.465 3.838 1.465 5.304-0 1.461-1.462 1.461-3.841 0-5.303-0.006-0.006-0.013-0.012-0.020-0.019l-8.613-7.901 0.347-0.347c0.244-0.244 0.244-0.64 0-0.884s-0.64-0.244-0.884 0l-0.384 0.385-0.918-0.843 3.701-3.701c0.526 0.141 1.069 0.212 1.619 0.212 3.446 0 6.25-2.804 6.25-6.25 0-0.683-0.11-1.354-0.326-1.996-0.069-0.205-0.24-0.36-0.451-0.409zM5.518 6.371c-0.117-0.117-0.276-0.177-0.442-0.177l-1.414-0-2.218-3.704 1.077-1.077 3.697 2.219v1.414c0 0.166 0.066 0.324 0.183 0.441l7.854 7.871-0.884 0.884-7.853-7.87zM21.416 18.562l8.642 7.928c0.965 0.976 0.962 2.555-0.009 3.527-0.974 0.974-2.55 0.977-3.527 0.009l-7.942-8.627 2.837-2.836zM20.494 17.716l-2.762 2.762-0.844-0.916 2.688-2.688 0.918 0.843zM25.78 11.25c-0.547 0-1.084-0.088-1.597-0.261-0.225-0.075-0.473-0.017-0.641 0.15-3.133 3.133-9.885 9.884-12.371 12.371-0.168 0.168-0.226 0.416-0.15 0.642 0.52 1.543 0.271 3.188-0.682 4.515-0.95 1.323-2.429 2.082-4.057 2.082-0.183 0-0.365-0.010-0.545-0.029l1.985-1.97c0.118-0.117 0.185-0.277 0.185-0.444v-1.768c0-0.166-0.066-0.325-0.183-0.442l-1.789-1.789c-0.117-0.117-0.276-0.183-0.442-0.183h-1.768c-0.167 0-0.326 0.067-0.444 0.185l-1.97 1.985c-0.020-0.18-0.029-0.362-0.029-0.545 0-1.628 0.759-3.107 2.082-4.057 1.327-0.953 2.972-1.202 4.515-0.682 0.225 0.076 0.473 0.018 0.641-0.15 0.034-0.034 12.362-12.362 12.371-12.371 0.168-0.168 0.226-0.416 0.15-0.641-0.52-1.543-0.272-3.188 0.681-4.514 0.951-1.324 2.43-2.083 4.059-2.083 0.188 0 0.376 0.010 0.561 0.031l-1.944 1.973c-0.115 0.117-0.18 0.274-0.18 0.438v1.768c0 0.162 0.063 0.318 0.175 0.434l1.727 1.789c0.118 0.122 0.28 0.191 0.45 0.191h1.768c0.166 0 0.326-0.066 0.444-0.185l1.97-1.985c0.020 0.18 0.029 0.362 0.029 0.545 0 2.757-2.243 5-5 5z"></path>
</symbol>
<symbol id="icon-exit" viewBox="0 0 32 32">
<path  d="M20 28h-16v-24h16v2h4v-6h-24v32h24v-6h-4v2h-0z"></path>
<path  d="M24.586 8.586l-2.828 2.828 2.586 2.586h-10.344v4h10.344l-2.586 2.586 2.828 2.828 7.414-7.414-7.414-7.414z"></path>
</symbol>
<symbol id="icon-health" viewBox="0 0 32 32">
<path d="M31.882 17.829l-0.57-8.305c-0.037-0.538-0.282-1.029-0.689-1.382s-0.928-0.527-1.465-0.487c-1.057 0.077-1.877 0.968-1.866 2.027l0.067 6.771-2.933 3.756c-0.468 0.6-1.245 0.84-1.95 0.66l3.191-4.144c0.56-0.727 0.467-1.781-0.212-2.399-0.362-0.33-0.831-0.493-1.32-0.459s-0.931 0.261-1.244 0.638l-4.821 5.806c-0.795 0.958-1.226 2.17-1.214 3.415l0.075 7.71c0.003 0.307 0.253 0.555 0.56 0.555l8.027 0.011c0 0 0 0 0.001 0 0.157 0 0.307-0.066 0.413-0.181s0.159-0.271 0.146-0.428l-0.328-3.774 5.329-7.082c0.584-0.776 0.869-1.737 0.803-2.706zM30.183 19.861l-5.458 7.254c-0.083 0.11-0.123 0.248-0.111 0.386l0.293 3.378-6.86-0.009-0.069-7.155c-0.010-0.979 0.33-1.934 0.956-2.687l4.821-5.806c0.116-0.139 0.279-0.223 0.459-0.235s0.354 0.047 0.487 0.169c0.251 0.228 0.285 0.617 0.078 0.885l-3.621 4.703c-0.095 0.123-0.134 0.28-0.109 0.434s0.114 0.29 0.243 0.375c1.296 0.86 3.061 0.573 4.018-0.653l3.054-3.911c0.078-0.1 0.12-0.224 0.119-0.351l-0.069-6.967c-0.005-0.469 0.358-0.863 0.826-0.898 0.239-0.017 0.469 0.059 0.649 0.216s0.289 0.374 0.305 0.612l0.569 8.305c0.048 0.7-0.158 1.395-0.58 1.955z"></path>
<path d="M9.108 14.504c-0.313-0.377-0.755-0.604-1.244-0.638s-0.958 0.129-1.32 0.459c-0.679 0.618-0.772 1.672-0.212 2.399l3.191 4.144c-0.704 0.18-1.482-0.060-1.95-0.66l-2.933-3.756 0.067-6.771c0.010-1.060-0.809-1.95-1.866-2.027-0.537-0.039-1.058 0.134-1.466 0.487s-0.652 0.844-0.689 1.382l-0.57 8.305c-0.066 0.969 0.219 1.93 0.803 2.706l5.329 7.082-0.328 3.774c-0.014 0.157 0.039 0.312 0.146 0.428s0.256 0.181 0.413 0.181c0 0 0.001 0 0.001 0l8.027-0.011c0.307-0 0.557-0.248 0.56-0.555l0.075-7.71c0.012-1.244-0.419-2.457-1.214-3.415l-4.821-5.806zM13.952 30.868l-6.86 0.009 0.293-3.378c0.012-0.138-0.027-0.275-0.111-0.386l-5.458-7.254c-0.422-0.561-0.628-1.255-0.58-1.955l0.57-8.305c0.016-0.238 0.125-0.456 0.305-0.612 0.164-0.142 0.368-0.218 0.583-0.218 0.022 0 0.044 0.001 0.066 0.002 0.468 0.034 0.831 0.428 0.826 0.898l-0.069 6.967c-0.001 0.127 0.041 0.251 0.119 0.351l3.054 3.911c0.957 1.226 2.722 1.513 4.018 0.653 0.13-0.086 0.218-0.222 0.243-0.375s-0.014-0.311-0.109-0.434l-3.621-4.703c-0.207-0.268-0.172-0.657 0.078-0.885 0.134-0.122 0.307-0.182 0.487-0.169s0.343 0.096 0.459 0.235l4.821 5.806c0.626 0.754 0.965 1.708 0.956 2.687l-0.069 7.155z"></path>
<path d="M26.986 6.31c0-1.685-0.656-3.27-1.848-4.462s-2.776-1.848-4.462-1.848c-1.686 0-3.27 0.656-4.462 1.848l-0.213 0.213-0.213-0.213c-1.192-1.192-2.776-1.848-4.462-1.848s-3.27 0.656-4.462 1.848c-2.46 2.46-2.46 6.464 0 8.924l8.741 8.741c0.11 0.109 0.253 0.164 0.397 0.164s0.287-0.055 0.397-0.164l8.741-8.741c1.192-1.192 1.848-2.776 1.848-4.462zM16 18.323l-8.344-8.344c-2.023-2.023-2.023-5.315 0-7.338 0.98-0.98 2.283-1.52 3.669-1.52s2.689 0.54 3.669 1.52l0.61 0.61c0.105 0.105 0.248 0.164 0.396 0.164s0.291-0.059 0.397-0.164l0.61-0.61c0.98-0.98 2.283-1.52 3.669-1.52s2.689 0.54 3.669 1.52c0.98 0.98 1.52 2.283 1.52 3.669s-0.54 2.689-1.52 3.669l-8.344 8.344z"></path>
</symbol>
<symbol id="icon-house" viewBox="0 0 56 32">
<path d="M53.225 8.916h-1.113v-4.135c0-2.444-1.989-4.433-4.433-4.433h-16.066c-1.489 0-2.809 0.739-3.613 1.869-0.804-1.13-2.123-1.869-3.613-1.869h-10.093c-0.453 0-0.82 0.367-0.82 0.82s0.367 0.82 0.82 0.82h10.093c1.54 0 2.793 1.253 2.793 2.792v8.204c-0.017-0.017-0.035-0.032-0.053-0.048-0.972-0.907-2.29-1.429-3.62-1.429h-13.664c-0.072-1.101-0.823-2.070-1.859-2.437-0.292-0.103-0.601-0.154-0.91-0.154h-1.544v-4.135c0-1.54 1.253-2.792 2.792-2.792h2.692c0.453 0 0.82-0.367 0.82-0.82s-0.367-0.82-0.82-0.82h-2.692c-2.444 0-4.433 1.989-4.433 4.433v4.135h-1.113c-1.53 0-2.775 1.245-2.775 2.775v8.565c0 3.187 2.593 5.78 5.78 5.78h0.412c0 0-0.898 2.416-0.899 2.418-0.567 1.524 0.6 3.198 2.223 3.198h1.32c0.739 0 1.446-0.352 1.892-0.941l3.536-4.675h27.473l3.536 4.675c0.446 0.589 1.153 0.941 1.891 0.941 0 0 1.319 0 1.32 0 1.625 0 2.79-1.674 2.223-3.198l-0.899-2.418h0.412c3.187 0 5.78-2.593 5.78-5.78v-8.565c0-1.53-1.245-2.775-2.775-2.775zM28.82 4.781c0-1.54 1.253-2.793 2.793-2.793h16.066c1.54 0 2.792 1.253 2.792 2.792v4.135c0 0-1.544 0-1.545 0-1.091 0-2.137 0.7-2.56 1.704-0.118 0.281-0.189 0.583-0.209 0.888 0 0-13.664 0-13.664 0-1.351 0-2.697 0.543-3.673 1.478v-8.204zM9.849 13.148h13.658c2.026 0 3.673 1.648 3.673 3.673v1.166h-17.331v-4.84zM9.419 29.721c-0.137 0.182-0.355 0.29-0.583 0.29 0 0-1.315 0-1.32 0-0.502 0-0.86-0.515-0.685-0.986l1.111-2.99h4.264l-2.787 3.685zM48.484 30.011h-1.32c-0.228 0-0.446-0.108-0.583-0.29l-2.788-3.685h4.264c0 0 1.108 2.979 1.111 2.989 0.175 0.472-0.185 0.986-0.685 0.986zM50.22 24.395h-44.44c-2.282 0-4.139-1.857-4.139-4.139v-8.565c0-0.626 0.509-1.135 1.135-1.135h4.298c0.626 0 1.135 0.509 1.135 1.135v7.117c0 0.453 0.367 0.82 0.82 0.82h30.13c0.453 0 0.82-0.367 0.82-0.82s-0.367-0.82-0.82-0.82h-10.338v-1.166c0-2.025 1.648-3.673 3.673-3.673h13.658v4.84h-3.712c-0.453 0-0.82 0.367-0.82 0.82s0.367 0.82 0.82 0.82h4.532c0.453 0 0.82-0.367 0.82-0.82v-7.117c0-0.626 0.509-1.135 1.135-1.135h4.298c0.626 0 1.135 0.509 1.135 1.135v8.565h0c0 2.282-1.857 4.139-4.139 4.139z"></path>
</symbol>
<symbol id="icon-left" viewBox="0 0 48 32">
<path  d="M48 13.333h-37.787l9.547-9.573-3.76-3.76-16 16 16 16 3.76-3.76-9.547-9.573h37.787v-5.333z"></path>
</symbol>
<symbol id="icon-left2" viewBox="0 0 19 32">
<path stroke-linejoin="miter" stroke-linecap="butt" stroke-miterlimit="4" stroke-width="5.3333" d="M16 2.667l-10.667 13.333 10.667 13.333"></path>
</symbol>
<symbol id="icon-other" viewBox="0 0 32 32">
<path d="M31.996 22.334c-0.956-7.667-8.11-8.803-10.129-8.971v-6.963c0-0.048-0.067-4.8-5.867-4.8s-5.867 4.752-5.867 4.8v6.963c-2.019 0.168-9.171 1.303-10.129 8.971 0 0.011-0.004 0.053-0.004 0.066v2.133c0 0.295 0.239 0.533 0.533 0.533h2.667v1.067h-1.6c-0.295 0-0.533 0.239-0.533 0.533 0 1.291 0.78 3.733 3.733 3.733s3.733-2.442 3.733-3.733c0-0.295-0.239-0.533-0.533-0.533h-1.6v-1.067h8v1.067h-1.6c-0.294 0-0.533 0.239-0.533 0.533 0 1.291 0.78 3.733 3.733 3.733s3.733-2.442 3.733-3.733c0-0.295-0.239-0.533-0.533-0.533h-1.6v-1.067h8v1.067h-1.6c-0.294 0-0.533 0.239-0.533 0.533 0 1.291 0.78 3.733 3.733 3.733s3.733-2.442 3.733-3.733c0-0.295-0.239-0.533-0.533-0.533h-1.6v-1.067h2.667c0.294 0 0.533-0.239 0.533-0.533v-2.133c0-0.012 0-0.053-0.004-0.066zM11.2 6.4c0-0.153 0.053-3.733 4.8-3.733 4.714 0 4.8 3.583 4.8 3.733v6.933h-1.067v-3.2h-1.067v3.2h-7.467v-6.933zM6.187 15.434c1.416-0.622 2.935-0.973 4.48-1.035h10.667c1.545 0.062 3.064 0.413 4.48 1.035 2.69 1.113 4.599 3.554 5.033 6.432h-29.693c0.434-2.878 2.344-5.319 5.033-6.432zM4.8 29.333c-1.299 0.098-2.448-0.84-2.611-2.133h5.219c-0.169 1.289-1.312 2.223-2.608 2.133zM5.333 26.133h-1.067v-1.067h1.067v1.067zM16 29.333c-1.3 0.098-2.448-0.84-2.611-2.133h5.219c-0.169 1.289-1.312 2.223-2.608 2.133zM16.533 26.133h-1.067v-1.067h1.067v1.067zM27.2 29.333c-1.3 0.099-2.45-0.839-2.613-2.133h5.221c-0.169 1.289-1.312 2.223-2.608 2.133zM27.733 26.133h-1.067v-1.067h1.067v1.067zM30.933 24h-29.867v-1.067h29.867v1.067z"></path>
<path d="M16 15.467c-1.473 0-2.667 1.194-2.667 2.667s1.194 2.667 2.667 2.667c1.473 0 2.667-1.194 2.667-2.667-0.002-1.472-1.195-2.665-2.667-2.667zM16 19.733c-0.884 0-1.6-0.716-1.6-1.6s0.716-1.6 1.6-1.6 1.6 0.716 1.6 1.6c0 0.884-0.716 1.6-1.6 1.6z"></path>
<path d="M17.067 18.133c0 0.589-0.478 1.067-1.067 1.067s-1.067-0.478-1.067-1.067c0-0.589 0.478-1.067 1.067-1.067s1.067 0.478 1.067 1.067z"></path>
<path d="M18.667 8h1.067v1.067h-1.067v-1.067z"></path>
<path d="M18.667 6.4v0.533h1.067v-0.533c0-0.273-0.107-2.667-3.733-2.667v1.067c2.475 0 2.667 1.227 2.667 1.6z"></path>
<path d="M11.2 17.6h1.067v1.067h-1.067v-1.067z"></path>
<path d="M9.067 17.6h1.067v1.067h-1.067v-1.067z"></path>
<path d="M19.733 17.6h1.067v1.067h-1.067v-1.067z"></path>
<path d="M21.867 17.6h1.067v1.067h-1.067v-1.067z"></path>
</symbol>
<symbol id="icon-products" viewBox="0 0 35 32">
<path  d="M35.352 25.028l-0.135-0.728c-0.086-0.465-0.492-0.803-0.966-0.803-0.059 0-0.119 0.005-0.178 0.016l-2.747 0.505 1.244-0.831c0.326-0.218 0.491-0.608 0.42-0.994-0.020-0.106-0.057-0.207-0.11-0.303l-0.376-0.666c-0.129-0.229-0.349-0.399-0.603-0.467-0.124-0.033-0.254-0.041-0.381-0.024 0.139-0.764 0.21-1.545 0.21-2.34 0-0.353-0.212-0.656-0.515-0.791 0.396-0.941 0.423-2.019 0.032-3.006-0.032-0.080-0.079-0.152-0.14-0.213s-0.131-0.107-0.212-0.14c-0.469-0.187-0.962-0.281-1.465-0.281-0.064 0-0.128 0.002-0.192 0.005-0.072-1.446-1.269-2.6-2.73-2.6-0.192 0-0.38 0.020-0.561 0.059 0.126-0.753 0.052-1.541-0.242-2.28-0.032-0.081-0.079-0.154-0.143-0.22-0.062-0.062-0.134-0.11-0.215-0.142-0.505-0.201-1.036-0.303-1.578-0.303-0.816 0-1.597 0.229-2.271 0.656-0.246-0.713-0.652-1.383-1.22-1.952-0.166-0.167-0.387-0.258-0.622-0.258s-0.456 0.092-0.623 0.258l-2.508 2.514c-0.464-0.414-1.075-0.662-1.738-0.662-0.15 0-0.302 0.013-0.451 0.039-0.54 0.094-1.038 0.359-1.419 0.746-0.489-0.236-1.049-0.316-1.587-0.223-0.118 0.021-0.233 0.050-0.345 0.085v-1.937c0-1.334-1.072-2.422-2.399-2.444v-1.099c0.406-0.070 0.716-0.424 0.716-0.85v-2.49c0-0.476-0.387-0.863-0.864-0.863h-4.213c-0.476 0-0.863 0.387-0.863 0.863v2.49c0 0.426 0.31 0.78 0.716 0.85v1.099c-1.326 0.023-2.399 1.11-2.399 2.444v15.121c-1.034 0.934-1.678 2.238-1.678 3.679 0 2.835 2.489 5.142 5.548 5.142l20.736-0.006c0.708-0 1.373-0.311 1.826-0.853 0.441-0.528 0.628-1.213 0.52-1.889l4.142 0.744c0.057 0.010 0.116 0.016 0.174 0.016 0.207 0 0.404-0.063 0.572-0.183 0.215-0.154 0.361-0.392 0.4-0.653l0.112-0.753c0.016-0.108 0.014-0.216-0.005-0.323-0.071-0.385-0.364-0.69-0.747-0.778l-1.46-0.335 2.744-0.504c0.259-0.047 0.483-0.193 0.632-0.409s0.204-0.476 0.157-0.734zM29.429 14.997c0.312 0 0.619 0.049 0.913 0.147 0.263 0.802 0.165 1.668-0.248 2.382h-1.396l0.445-0.446c0.202-0.203 0.202-0.531-0.001-0.733s-0.531-0.202-0.733 0.001l-0.236 0.236c-0.11-0.364-0.303-0.689-0.557-0.956 0.514-0.408 1.145-0.631 1.811-0.631zM26.507 12.401c0.936 0 1.697 0.763 1.697 1.702 0 0.017-0.001 0.035-0.001 0.052-0.546 0.178-1.049 0.474-1.479 0.877-0.068-0.026-0.138-0.050-0.209-0.070-0.152-0.819-0.703-1.475-1.432-1.781 0.302-0.469 0.827-0.78 1.424-0.78zM23.769 9.515c0.352 0 0.698 0.057 1.031 0.17 0.268 0.796 0.213 1.652-0.128 2.393-0.281 0.256-0.508 0.568-0.664 0.92-0.093 0.005-0.185 0.016-0.276 0.031-0.406 0.071-0.785 0.247-1.101 0.502-0.108-0.198-0.24-0.38-0.392-0.544l1.188-1.191c0.202-0.203 0.202-0.531-0.001-0.733s-0.531-0.202-0.733 0.001l-1.299 1.302c-0.247-0.117-0.514-0.198-0.795-0.236 0.121-0.618 0.421-1.201 0.885-1.666 0.611-0.612 1.422-0.949 2.284-0.949zM19.799 17.526h-0.449c-0.076-0.192-0.263-0.329-0.482-0.329s-0.406 0.136-0.482 0.329h-0.528c0.123-0.2 0.098-0.464-0.075-0.637-0.203-0.202-0.531-0.202-0.733 0.001l-0.488 0.489c-0.044 0.044-0.078 0.094-0.102 0.147h-1.054c-0.395-0.606-0.636-1.321-0.664-2.091h8.219c-0.029 0.77-0.27 1.485-0.664 2.091h-1.097c-0.025-0.053-0.059-0.103-0.102-0.147l-0.488-0.489c-0.202-0.202-0.53-0.203-0.733-0.001-0.173 0.173-0.198 0.438-0.075 0.637zM18.594 14.399c0.195-0.724 0.855-1.258 1.638-1.258s1.443 0.534 1.638 1.258h-3.276zM19.653 8.028c0.493 0.533 0.819 1.165 0.978 1.83-0.264 0.287-0.484 0.605-0.658 0.943-0.079-0.048-0.171-0.076-0.27-0.076h-0.69c-0.286 0-0.518 0.232-0.518 0.518s0.232 0.518 0.518 0.518h0.606c-0.034 0.143-0.061 0.288-0.080 0.434-0.206 0.054-0.402 0.131-0.586 0.229-0.345-0.596-0.917-1.040-1.595-1.218-0-0.001-0-0.003-0.001-0.004-0.041-0.234-0.111-0.457-0.208-0.664l2.503-2.509zM10.288 12.703c-0.030-0.085-0.053-0.172-0.069-0.26-0.149-0.857 0.429-1.675 1.287-1.825 0.091-0.016 0.182-0.024 0.273-0.024 0.341 0 0.668 0.109 0.943 0.315 0.114 0.085 0.258 0.12 0.399 0.095s0.264-0.105 0.343-0.224c0.243-0.367 0.615-0.61 1.048-0.686 0.091-0.016 0.183-0.024 0.274-0.024 0.768 0 1.42 0.549 1.551 1.306 0.015 0.087 0.023 0.177 0.023 0.269 0 0.268 0.206 0.492 0.473 0.515 0.579 0.051 1.072 0.415 1.301 0.929-0.306 0.367-0.518 0.816-0.599 1.308h-2.955c-0.367 0-0.683 0.227-0.814 0.548-0.65-0.443-1.416-0.681-2.219-0.681-0.503 0-0.996 0.095-1.465 0.281-0.080 0.032-0.151 0.079-0.211 0.139s-0.109 0.134-0.14 0.213c-0.119 0.301-0.199 0.61-0.242 0.921-0.186-0.211-0.317-0.474-0.368-0.769-0.122-0.703 0.246-1.403 0.895-1.702 0.244-0.113 0.361-0.392 0.271-0.645zM11.832 17.384l0.141 0.142h-1.244c-0.279-0.648-0.322-1.386-0.095-2.078 0.295-0.098 0.602-0.147 0.913-0.147 0.781 0 1.515 0.305 2.068 0.859 0.073 0.074 0.142 0.151 0.206 0.231 0.088 0.397 0.223 0.777 0.397 1.135h-0.781l-0.872-0.874c-0.202-0.203-0.53-0.203-0.733-0.001s-0.203 0.53-0.001 0.733zM9.626 17.526h-1.847c0.082-0.502 0.384-0.93 0.803-1.182 0.248 0.332 0.572 0.601 0.945 0.783 0.026 0.134 0.059 0.268 0.099 0.399zM4.397 1.036h3.868v2.144h-3.868v-2.144zM7.549 4.216v1.084h-2.436v-1.084h2.436zM2.715 9.847h3.364c0.286 0 0.518-0.232 0.518-0.518s-0.232-0.518-0.518-0.518h-3.364v-1.065c0-0.777 0.63-1.409 1.405-1.409h4.423c0.775 0 1.405 0.632 1.405 1.409v1.065h-0.967c-0.286 0-0.518 0.232-0.518 0.518s0.232 0.518 0.518 0.518h0.967v0.46c-0.594 0.582-0.902 1.435-0.75 2.313 0 0.002 0.001 0.004 0.001 0.005-0.831 0.57-1.274 1.584-1.098 2.602 0.010 0.059 0.023 0.118 0.037 0.176-0.259 0.143-0.491 0.327-0.691 0.543h-4.733v-6.099zM2.715 16.982h4.132c-0.055 0.175-0.094 0.356-0.113 0.544h-0.087c-0.477 0-0.865 0.388-0.865 0.866 0 0.823 0.077 1.63 0.225 2.42-0.149-0.012-0.302-0.018-0.457-0.018-0.627 0-1.224 0.099-1.681 0.28-0.699 0.276-0.893 0.668-0.935 0.94-0.074 0.037-0.147 0.076-0.219 0.116v-5.147zM9.275 23.347c0.187 0.149 0.301 0.276 0.367 0.368-0.006 0-0.013 0-0.019 0-0.293 0-0.82-0.118-1.419-0.45-0.223-0.124-0.429-0.263-0.594-0.404-0.193-0.164-0.477-0.164-0.67 0-0.166 0.141-0.371 0.28-0.594 0.403-0.599 0.332-1.126 0.45-1.419 0.45-0.007 0-0.013-0-0.019-0 0.066-0.092 0.18-0.218 0.367-0.368 0.163-0.131 0.232-0.346 0.174-0.547s-0.23-0.348-0.438-0.372c-0.506-0.059-0.825-0.188-0.975-0.282 0.188-0.117 0.662-0.316 1.515-0.316 0.707 0 1.223 0.149 1.471 0.288 0.158 0.088 0.35 0.088 0.507 0 0.248-0.139 0.764-0.288 1.471-0.288 0.853 0 1.327 0.199 1.515 0.316-0.15 0.094-0.469 0.222-0.975 0.282-0.208 0.024-0.38 0.171-0.438 0.372s0.011 0.417 0.174 0.547zM8.239 29.652l0.018 0.096c0.062 0.333 0.192 0.638 0.373 0.904h-3.082c-2.488 0-4.511-1.842-4.511-4.106 0-1.547 0.946-2.897 2.338-3.597 0.16 0.119 0.359 0.222 0.596 0.305-0.094 0.16-0.159 0.332-0.175 0.512-0.020 0.239 0.053 0.466 0.206 0.639 0.203 0.229 0.514 0.345 0.924 0.345 0.547 0 1.266-0.217 1.921-0.58 0.151-0.083 0.294-0.172 0.427-0.264 0.134 0.092 0.276 0.18 0.427 0.264 0.656 0.363 1.374 0.579 1.921 0.58h0c0.411 0 0.722-0.116 0.924-0.345 0.153-0.173 0.227-0.4 0.206-0.639-0.015-0.18-0.081-0.352-0.175-0.512 0.237-0.083 0.436-0.186 0.596-0.305 1.104 0.555 1.927 1.519 2.22 2.666l-3.664 1.392c-1.073 0.408-1.7 1.52-1.492 2.645zM27.315 30.165c-0.256 0.306-0.631 0.481-1.031 0.481l-0.544 0-0.34-1.834c-0.052-0.281-0.322-0.467-0.604-0.415s-0.467 0.322-0.415 0.604l0.305 1.646-1.783 0.001-0.23-1.24c-0.052-0.281-0.322-0.467-0.604-0.415s-0.467 0.322-0.415 0.604l0.195 1.052-4.146 0.002-0.312-1.685c-0.052-0.281-0.322-0.467-0.604-0.415s-0.467 0.322-0.415 0.604l0.277 1.496-6.054 0.002c-0 0-0 0-0 0-0.647 0-1.202-0.459-1.32-1.093l-0.018-0.096c-0.117-0.632 0.236-1.258 0.841-1.488l2.036-0.774 0.152 0.819c0.046 0.249 0.264 0.424 0.509 0.424 0.031 0 0.063-0.003 0.095-0.009 0.281-0.052 0.467-0.322 0.415-0.604l-0.186-1.004 3.023-1.148c0.267-0.102 0.402-0.401 0.3-0.668s-0.401-0.402-0.668-0.3l-1.406 0.534c-0.395-1.397-1.408-2.564-2.752-3.233-0.042-0.271-0.236-0.663-0.935-0.94-0.457-0.181-1.054-0.28-1.681-0.28-0.431 0-0.843 0.048-1.206 0.134v-0.313c0-0.286-0.232-0.518-0.518-0.518-0.121 0-0.232 0.042-0.32 0.111-0.082-0.54-0.127-1.089-0.135-1.646h16.875c0.286 0 0.518-0.232 0.518-0.518s-0.232-0.518-0.518-0.518h-0.212c0.33-0.679 0.516-1.441 0.516-2.246 0-0.457-0.35-0.834-0.795-0.876 0.194-0.183 0.436-0.306 0.706-0.353 0.079-0.014 0.159-0.021 0.239-0.021 0.669 0 1.237 0.479 1.351 1.138 0.013 0.076 0.020 0.155 0.020 0.234 0 0.268 0.206 0.492 0.473 0.515 0.619 0.054 1.126 0.52 1.232 1.132 0.028 0.163 0.025 0.323-0.004 0.477h-0.556c-0.286 0-0.518 0.232-0.518 0.518s0.232 0.518 0.518 0.518h4.027c-0.013 0.95-0.135 1.879-0.364 2.779l-2.808 1.657c-0.172-0.598-0.571-1.105-1.121-1.412-0.617-0.345-1.35-0.399-2.011-0.148l-5.783 2.197c-0.267 0.102-0.402 0.401-0.3 0.668s0.401 0.402 0.668 0.3l0.762-0.289 0.237 1.277c0.046 0.25 0.264 0.424 0.509 0.424 0.031 0 0.063-0.003 0.095-0.009 0.281-0.052 0.467-0.322 0.415-0.604l-0.271-1.462 4.036-1.533c0.374-0.142 0.788-0.112 1.137 0.084s0.589 0.53 0.662 0.921l1.048 5.659c0.072 0.39-0.033 0.789-0.288 1.094zM29.163 26.109c-0.242 0.044-0.419 0.252-0.424 0.498s0.163 0.461 0.402 0.516l3.857 0.885-0.096 0.646-4.472-0.804-0.699-3.774 3.895-2.299 0.324 0.575-3.285 2.196c-0.204 0.137-0.285 0.398-0.192 0.626s0.332 0.359 0.574 0.315l5.161-0.948 0.115 0.62-5.159 0.948z"></path>
</symbol>
<symbol id="icon-right" viewBox="0 0 19 32">
<path  stroke-linejoin="miter" stroke-linecap="butt" stroke-miterlimit="4" stroke-width="5.3333" d="M2.667 2.667l10.667 13.333-10.667 13.333"></path>
</symbol>
<symbol id="icon-salary" viewBox="0 0 29 32">
<path  d="M13.699 12.95c-0.109-0.039-0.22-0.079-0.331-0.12v-2.017c0.368 0.146 0.626 0.35 0.637 0.358 0.266 0.218 0.658 0.18 0.878-0.085s0.183-0.66-0.083-0.88c-0.037-0.030-0.617-0.502-1.431-0.701v-0.306c0-0.345-0.28-0.625-0.625-0.625s-0.625 0.28-0.625 0.625v0.277c-0.066 0.014-0.133 0.030-0.2 0.050-0.719 0.216-1.237 0.822-1.388 1.62-0.146 0.775 0.107 1.549 0.644 1.97 0.245 0.192 0.544 0.368 0.944 0.552v2.643c-0.283-0.040-0.495-0.136-0.833-0.357-0.289-0.189-0.676-0.108-0.865 0.181s-0.108 0.676 0.181 0.865c0.594 0.388 1.012 0.525 1.518 0.568v0.389c0 0.345 0.28 0.625 0.625 0.625s0.625-0.28 0.625-0.625v-0.448c1.040-0.264 1.706-1.151 1.853-2.027 0.189-1.126-0.422-2.144-1.522-2.532zM12.118 12.254c-0.062-0.040-0.12-0.080-0.172-0.121-0.169-0.132-0.245-0.443-0.187-0.755 0.020-0.105 0.1-0.415 0.359-0.58v1.456zM13.988 15.275c-0.057 0.34-0.268 0.696-0.62 0.898v-2.012c0.678 0.285 0.661 0.869 0.62 1.114z"></path>
<path  d="M27.88 13.353l-3.969-2.621v-10.107c0-0.345-0.28-0.625-0.625-0.625h-15c-0.345 0-0.625 0.28-0.625 0.625v2.375h-2.375c-0.345 0-0.625 0.28-0.625 0.625v7.107l-3.969 2.621c-0.175 0.116-0.281 0.312-0.281 0.521v17.5c0 0.345 0.28 0.625 0.625 0.625h10.438c0.345 0 0.625-0.28 0.625-0.625s-0.28-0.625-0.625-0.625h-8.929l9.112-9.112 2.284 1.509c0.104 0.069 0.224 0.103 0.344 0.103s0.24-0.035 0.344-0.103l2.285-1.509 9.112 9.112h-8.929c-0.345 0-0.625 0.28-0.625 0.625s0.28 0.625 0.625 0.625h10.438c0.345 0 0.625-0.28 0.625-0.625v-17.5c0-0.21-0.105-0.406-0.28-0.522zM26.402 13.875l-2.491 1.645v-3.29l2.491 1.645zM8.911 1.25h13.75v15.095l-1.75 1.156v-13.876c0-0.345-0.28-0.625-0.625-0.625h-11.375v-1.75zM4.661 12.23v3.29l-2.491-1.645 2.491-1.645zM1.661 29.866v-14.829l8.931 5.898-8.931 8.931zM14.286 21.876l-8.375-5.531v-12.095h13.75v14.077l-5.375 3.55zM26.911 15.037v14.829l-8.931-8.931 8.931-5.898z"></path>
<path  d="M14.286 30.75c-0.164 0-0.326 0.067-0.442 0.183s-0.183 0.277-0.183 0.442c0 0.164 0.067 0.326 0.183 0.442s0.277 0.183 0.442 0.183 0.326-0.067 0.442-0.183c0.116-0.116 0.183-0.277 0.183-0.442s-0.067-0.326-0.183-0.442c-0.116-0.116-0.277-0.183-0.442-0.183z"></path>
</symbol>
<symbol id="icon-schedule" viewBox="0 0 32 32">
<path  d="M0 9.6h6.857v22.4h-6.857v-22.4zM12.8 0h6.4v32h-6.4v-32zM25.6 18.286h6.4v13.714h-6.4v-13.714z"></path>
</symbol>
<symbol id="icon-sport" viewBox="0 0 32 32">
<path d="M31.020 13.515h-1.907c-0.354 0-0.665 0.182-0.847 0.456-1.458-0.152-1.652-0.386-1.81-0.576-0.214-0.259-0.468-0.479-0.756-0.653l-4.383-2.662c-0.893-2.073-2.386-3.369-3.493-4.096-0.431-0.283-0.689-0.762-0.689-1.282 0-0.307 0.090-0.603 0.261-0.857l1.090-1.622c0.217-0.323 0.292-0.711 0.211-1.092s-0.307-0.705-0.636-0.912c-0.228-0.143-0.49-0.218-0.759-0.218h-5.178c-0.269 0-0.531 0.076-0.759 0.218-0.33 0.207-0.556 0.531-0.636 0.912s-0.006 0.769 0.211 1.092l1.090 1.622c0.171 0.254 0.261 0.551 0.261 0.857 0 0.52-0.258 0.999-0.689 1.282-1.642 1.077-5.311 4.25-3.924 10.452 0.774 3.459 1.371 5.897 1.731 7.070h-7.729c-0.637 0-1.195 0.453-1.325 1.077l-0.264 1.268c-0.084 0.401 0.017 0.812 0.275 1.13s0.641 0.5 1.050 0.5h26.594c0.409 0 0.792-0.182 1.050-0.5s0.358-0.73 0.275-1.13l-0.264-1.268c-0.13-0.624-0.688-1.077-1.325-1.077h-7.729c0.107-0.351 0.237-0.818 0.387-1.396h0.509c1.493 0 2.972-0.223 4.399-0.663l2.913-0.367c0.174 0.311 0.506 0.522 0.888 0.522h1.907c0.56 0 1.016-0.456 1.016-1.016v-6.054c0-0.56-0.456-1.017-1.016-1.017zM11.646 1.325c0.028-0.131 0.105-0.241 0.218-0.313 0.078-0.049 0.168-0.075 0.26-0.075h5.178c0.092 0 0.182 0.026 0.26 0.075 0.113 0.071 0.19 0.182 0.218 0.313s0.002 0.263-0.073 0.374l-0.539 0.803h-4.911l-0.539-0.803c-0.074-0.111-0.1-0.244-0.072-0.374zM12.116 6.767c0.697-0.457 1.113-1.229 1.113-2.066 0-0.447-0.121-0.88-0.348-1.262h3.664c-0.227 0.382-0.347 0.815-0.347 1.262 0 0.837 0.416 1.609 1.113 2.066 0.287 0.188 0.603 0.419 0.926 0.696h-7.043c0.328-0.282 0.645-0.513 0.923-0.696zM28.154 24.774l0.264 1.268c0.035 0.168-0.038 0.29-0.084 0.347s-0.151 0.154-0.323 0.154h-26.594c-0.172 0-0.276-0.096-0.323-0.154s-0.12-0.179-0.084-0.347l0.264-1.268c0.040-0.192 0.211-0.331 0.407-0.331h26.066c0.196 0 0.367 0.139 0.407 0.331zM19.033 23.506h-8.64c-0.193-0.575-0.683-2.285-1.8-7.275-0.471-2.104-0.358-4.009 0.332-5.676h1.727c0.259 0 0.469-0.21 0.469-0.469s-0.21-0.469-0.469-0.469h-1.262c0.265-0.456 0.559-0.86 0.864-1.216h8.919c0.306 0.357 0.6 0.761 0.863 1.216h-7.508c-0.259 0-0.469 0.21-0.469 0.469s0.21 0.469 0.469 0.469h6.212c-0.119 0.292-0.144 0.613-0.067 0.925 0.096 0.39 0.338 0.72 0.681 0.927l0.806 0.489h-5.21c-0.827 0-1.498 0.636-1.527 1.449-0.008 0.216 0.030 0.427 0.108 0.62h-0.481c-0.412 0-0.796 0.163-1.082 0.46s-0.435 0.686-0.42 1.098c0.023 0.644 0.449 1.177 1.036 1.371-0.093 0.195-0.145 0.414-0.145 0.644 0 0.829 0.675 1.503 1.503 1.503h0.71c-0.071 0.175-0.111 0.366-0.111 0.566 0 0.829 0.675 1.503 1.503 1.503h3.388c-0.197 0.745-0.324 1.163-0.402 1.395zM25.154 20.522c-0.028 0.003-0.054 0.009-0.081 0.017-1.348 0.42-2.748 0.633-4.16 0.633h-4.866c-0.312 0-0.566-0.254-0.566-0.566s0.254-0.566 0.566-0.566h3.072c0.259 0 0.469-0.21 0.469-0.469s-0.21-0.469-0.469-0.469h-5.176c-0.312 0-0.566-0.254-0.566-0.566s0.254-0.566 0.566-0.566h5.176c0.259 0 0.469-0.21 0.469-0.469s-0.21-0.469-0.469-0.469h-6.043c-0.315 0-0.58-0.244-0.59-0.545-0.005-0.155 0.051-0.302 0.158-0.414s0.252-0.173 0.407-0.173h6.068c0.259 0 0.469-0.21 0.469-0.469s-0.21-0.469-0.469-0.469h-4.193c-0.155 0-0.3-0.062-0.407-0.173s-0.164-0.258-0.158-0.414c0.011-0.3 0.276-0.545 0.59-0.545h6.461c0.266 0 0.494-0.172 0.566-0.429s-0.033-0.522-0.261-0.66l-1.876-1.139c-0.129-0.078-0.22-0.202-0.256-0.349s-0.013-0.299 0.065-0.428c0.162-0.267 0.51-0.353 0.777-0.191l4.786 2.907c0.198 0.12 0.372 0.271 0.52 0.45 0.383 0.463 0.875 0.741 2.363 0.904v5.255l-2.942 0.371zM31.099 20.586c0 0.043-0.035 0.079-0.079 0.079h-1.907c-0.043 0-0.079-0.035-0.079-0.079v-6.055c0-0.043 0.035-0.079 0.079-0.079h1.907c0.043 0 0.079 0.035 0.079 0.079v6.055z"></path>
<path d="M22.477 30.488l-2.441-1.964c-0.202-0.162-0.497-0.13-0.659 0.072s-0.13 0.497 0.071 0.659l2.248 1.808h-13.965l2.253-1.812c0.202-0.162 0.234-0.457 0.071-0.659s-0.457-0.234-0.659-0.072l-2.446 1.968c-0.285 0.229-0.39 0.6-0.269 0.945s0.436 0.568 0.802 0.568h14.461c0.366 0 0.68-0.223 0.802-0.568s0.016-0.716-0.269-0.945z"></path>
</symbol>
<symbol id="icon-transport" viewBox="0 0 41 32">
<path d="M39.17 11.953l-0.888-0.94-3.115-8.398c-0.531-1.419-1.888-2.358-3.403-2.367h-22.252c-1.514 0-2.872 0.949-3.403 2.367l-3.072 8.293-1.279 1.184c-1.114 0.948-1.758 2.341-1.758 3.803v12.236c0.009 2.002 1.636 3.62 3.638 3.62h2.297c2.002 0 3.629-1.619 3.638-3.62v-1.775h21.582v1.775c0.009 2.002 1.636 3.62 3.638 3.62h2.297c2.002 0 3.629-1.619 3.638-3.62v-12.558c-0.009-1.366-0.566-2.672-1.558-3.62zM7.745 3.207c0.278-0.74 0.983-1.218 1.767-1.218h22.261c0.783 0 1.488 0.487 1.767 1.218l2.715 7.31h-2.028c-0.479-3.263-3.516-5.517-6.779-5.030-2.602 0.383-4.647 2.428-5.030 5.030h-17.387l2.715-7.31zM32.451 10.517h-8.276c0.479-2.289 2.724-3.751 5.013-3.272 1.636 0.348 2.915 1.627 3.263 3.272zM7.832 28.131c-0.009 1.044-0.853 1.88-1.897 1.88h-2.297c-1.044 0-1.888-0.835-1.897-1.88v-2.28c0.522 0.339 1.21 0.505 1.897 0.505h4.195v1.775zM38.987 28.131c-0.009 1.044-0.853 1.88-1.897 1.88h-2.297c-1.044 0-1.888-0.844-1.897-1.88v-1.775h4.195c0.688 0 1.375-0.165 1.897-0.505v2.28zM37.090 24.615h-33.452c-1.036 0.009-1.888-0.818-1.897-1.862v-6.858c0-0.957 0.426-1.871 1.157-2.489 0.009-0.009 0.026-0.026 0.035-0.035l1.184-1.114h32.956l0.835 0.896c0.009 0.017 0.035 0.026 0.044 0.043 0.653 0.618 1.027 1.479 1.027 2.376v7.18h0.009c-0.009 1.036-0.862 1.871-1.897 1.862z"></path>
</symbol>
<symbol id="icon-x" viewBox="0 0 32 32">
<path stroke-linejoin="miter" stroke-linecap="butt" stroke-miterlimit="4" stroke-width="4.5714" d="M2.286 2.286l27.429 27.429"></path>
<path stroke-linejoin="miter" stroke-linecap="butt" stroke-miterlimit="4" stroke-width="4.5714" d="M2.286 29.714l27.429-27.429"></path>
</symbol>
<symbol id="google" viewBox="0 0 32 32">
<path fill="#2196f3" style="fill: var(--color1, #2196f3)" d="M31.394 13.038c0.139 0 0.251 0.115 0.251 0.258v2.704c0 1.012-0.092 2.002-0.268 2.962-1.362 7.457-7.777 13.092-15.466 13.038-8.628-0.061-15.532-7.2-15.513-16.036 0.019-8.82 7.007-15.964 15.623-15.964 4.221 0 8.052 1.715 10.864 4.501 0.102 0.101 0.104 0.266 0.004 0.369l-3.736 3.826c-0.096 0.098-0.252 0.101-0.35 0.005-1.765-1.721-4.153-2.777-6.783-2.777-5.43 0-9.802 4.446-9.839 10.007-0.037 5.597 4.382 10.146 9.839 10.146 4.427 0 8.172-2.995 9.407-7.115h-9.155c-0.139 0-0.252-0.115-0.252-0.258v-5.408c0-0.142 0.113-0.258 0.252-0.258l15.121 0z"></path>
<path fill="#1e88e5" style="fill: var(--color2, #1e88e5)" d="M31.393 13.038h-1.886c0.139 0 0.251 0.115 0.251 0.258v2.704c0 1.012-0.092 2.002-0.268 2.962-1.299 7.114-7.198 12.57-14.414 13.009 0.276 0.017 0.554 0.026 0.834 0.028 7.689 0.054 14.104-5.581 15.466-13.038 0.176-0.96 0.268-1.95 0.268-2.962v-2.704c0-0.142-0.113-0.258-0.252-0.258z"></path>
<path fill="#f44336" style="fill: var(--color3, #f44336)" d="M7.084 11.78l-4.745-3.511c2.662-4.931 7.792-8.269 13.682-8.269 4.222 0 8.052 1.715 10.864 4.501 0.102 0.101 0.104 0.266 0.004 0.369l-3.736 3.826c-0.096 0.098-0.251 0.101-0.35 0.005-1.765-1.721-4.153-2.777-6.783-2.777-3.963 0-7.379 2.399-8.937 5.857z"></path>
<path fill="#e53935" style="fill: var(--color4, #e53935)" d="M5.714 10.767l1.37 1.014c1.423-3.156 4.393-5.429 7.914-5.802 0.027-0.003 0.052-0.006 0.079-0.009-0.31-0.030-0.624-0.046-0.941-0.046-3.58 0-6.7 1.933-8.421 4.843z"></path>
<path fill="#e53935" style="fill: var(--color4, #e53935)" d="M24.999 4.501c0.102 0.101 0.104 0.266 0.004 0.369l-3.032 3.105c0.291 0.226 0.569 0.468 0.833 0.726 0.099 0.096 0.254 0.094 0.35-0.005l3.736-3.826c0.1-0.102 0.097-0.268-0.004-0.369-2.812-2.786-6.643-4.501-10.864-4.501-0.317 0-0.631 0.011-0.943 0.030 3.847 0.235 7.32 1.894 9.921 4.471z"></path>
<path fill="#4caf50" style="fill: var(--color5, #4caf50)" d="M27.482 26.874c-2.853 3.153-6.932 5.126-11.461 5.126-6.117 0-11.412-3.6-13.977-8.844l4.844-3.4c1.454 3.704 4.995 6.32 9.133 6.32 2.596 0 4.958-1.030 6.716-2.713l4.745 3.51z"></path>
<path fill="#43a047" style="fill: var(--color6, #43a047)" d="M6.888 19.756l-1.428 1.003c1.659 3.165 4.922 5.318 8.675 5.318 0.317 0 0.631-0.016 0.941-0.046-3.726-0.364-6.846-2.855-8.187-6.274z"></path>
<path fill="#43a047" style="fill: var(--color6, #43a047)" d="M16.021 32c4.529 0 8.608-1.974 11.461-5.126l-1.162-0.86c-2.679 3.414-6.698 5.679-11.239 5.957 0.311 0.019 0.625 0.029 0.941 0.029z"></path>
<path fill="#ffc107" style="fill: var(--color7, #ffc107)" d="M6.182 16c0 1.328 0.251 2.595 0.707 3.756l-4.844 3.4c-1.054-2.153-1.647-4.584-1.647-7.156 0-2.804 0.704-5.439 1.941-7.731l4.745 3.511c-0.579 1.283-0.902 2.713-0.902 4.22z"></path>
<path fill="#ffb300" style="fill: var(--color8, #ffb300)" d="M5.46 20.759l1.428-1.003c-0.456-1.161-0.707-2.429-0.707-3.756 0-1.507 0.323-2.937 0.902-4.22l-1.37-1.014c-0.889 1.504-1.406 3.269-1.418 5.164-0.012 1.747 0.411 3.392 1.164 4.829z"></path>
</symbol>
<symbol id="icon-kapusta2" viewBox="0 0 41 32">
<path fill="#dfe2eb" style="fill: var(--color1, #dfe2eb)" d="M9.387 24.338c-0.896 0-1.774-0.194-2.63-0.581-0.987-0.447-1.934-0.996-2.817-1.631-0.039-0.028-0.075-0.057-0.109-0.088l-0.949 0.764c-0.066 0.053-0.158 0.059-0.23 0.015-0.033-0.020-0.813-0.503-1.474-1.274-0.663-0.774-0.954-1.534-0.966-1.566-0.026-0.070-0.012-0.148 0.037-0.204l0.583-0.66c0.014-0.016 0.031-0.029 0.048-0.040-0.298-0.581-0.699-1.661-0.843-3.44-0.128-1.575 0.072-2.867 0.592-3.839 0.028-0.052 0.069-0.137 0.114-0.229 0.076-0.157 0.155-0.32 0.21-0.409 0.054-0.088 0.112-0.189 0.177-0.301 0.502-0.869 1.437-2.487 3.571-3.719 1.809-1.045 2.71-1.153 3.504-1.249 0.473-0.057 0.88-0.106 1.43-0.352 1.397-0.625 1.676-1.137 1.679-1.142 0.027-0.051 0.075-0.090 0.131-0.104s0.116-0.005 0.163 0.028c0.146 0.101 0.877 0.632 0.885 1.146 0.004 0.249-0.082 0.419-0.145 0.543-0.065 0.127-0.062 0.13-0.035 0.167 0.029 0.039 0.083 0.060 0.167 0.092 0.202 0.076 0.507 0.19 0.521 0.78 0.011 0.469-0.236 0.731-0.438 0.922 0.398 0.199 1.419 0.741 2.229 1.452 0.523 0.459 0.934 0.996 1.186 1.365 0.192 0.282 0.308 0.467 0.374 0.595 0.258-0.14 0.433-0.2 0.57-0.247 0.16-0.055 0.248-0.085 0.387-0.214 0.46-0.427 1.213-0.091 1.304-0.028 0.051 0.036 0.085 0.091 0.092 0.153 0.013 0.115-0.053 0.186-0.172 0.315-0.198 0.215-0.611 0.661-0.809 1.419-0.177 0.679-0.14 1.468-0.108 2.165 0.021 0.44 0.040 0.855 0 1.183-0.129 1.073-0.398 3.305-2.044 5.14-0.787 0.878-1.774 1.644-2.796 2.182-0.018 0.014-0.038 0.024-0.059 0.031-0.252 0.13-0.506 0.246-0.759 0.347-0.868 0.344-1.727 0.516-2.571 0.516zM8.286 23.824c1.497 0.281 2.954-0.055 4.225-0.698 0.088-0.179 0.343-0.78 0.324-1.687-0.022-1.070-0.207-1.408-0.209-1.411-0.054-0.095-0.023-0.217 0.070-0.273s0.213-0.029 0.271 0.063c0.025 0.040 0.244 0.421 0.268 1.612 0.012 0.591-0.080 1.063-0.181 1.396 0.862-0.516 1.619-1.163 2.217-1.831 0.311-0.346 0.57-0.709 0.786-1.075-0.073-0.179-0.238-0.698-0.149-1.568 0.104-1.014 0.143-1.567 0.143-1.572 0.008-0.111 0.105-0.193 0.214-0.186 0.11 0.008 0.194 0.103 0.186 0.214-0 0.006-0.039 0.564-0.144 1.586-0.046 0.447-0.018 0.785 0.024 1.019 0.641-1.311 0.796-2.605 0.885-3.337 0.035-0.295 0.017-0.694-0.003-1.116-0.034-0.725-0.073-1.547 0.12-2.285 0.206-0.789 0.613-1.273 0.847-1.53-0.187-0.049-0.45-0.074-0.602 0.067-0.201 0.186-0.353 0.239-0.529 0.299-0.167 0.057-0.374 0.128-0.734 0.351-0.333 0.206-0.341 0.476-0.326 0.9 0.010 0.28 0.021 0.598-0.143 0.879-0.286 0.491-0.634 0.378-0.864 0.304-0.125-0.040-0.233-0.075-0.346-0.049-0.011 0.087 0.063 0.33 0.118 0.51 0.126 0.415 0.299 0.983 0.206 1.557-0.052 0.32-0.148 0.516-0.302 0.617-0.179 0.117-0.37 0.068-0.524 0.029-0.202-0.052-0.241-0.047-0.299 0.037-0.222 0.321-0.284 0.614-0.369 1.020-0.036 0.171-0.077 0.365-0.136 0.583-0.091 0.341-0.266 0.579-0.52 0.708-0.386 0.196-0.941 0.142-1.748-0.17-0.68-0.263-1.299-0.324-1.698-0.328-0.002 0-0.004 0-0.006 0-0.174 0-0.331 0.081-0.504 0.209-1.157 1.11-2.43 1.736-3.685 1.793-0.243 0.011-0.498 0.002-0.757-0.022-0.282 0.071-0.452 0.289-0.521 0.498-0.086 0.26-0.058 0.624 0.281 0.868 0.861 0.62 1.785 1.155 2.748 1.591 0.291 0.132 0.582 0.237 0.872 0.318 0.128-0.097 0.72-0.567 1.266-1.378-0.042-0.096-0.289-0.675-0.319-1.188-0.015-0.256-0.023-0.585 0.019-0.699l0.375 0.141c0 0 0.002-0.005 0.005-0.017-0.001 0.005-0.025 0.118 0 0.551 0.016 0.269 0.106 0.572 0.182 0.785 0.609-1.057 0.699-1.434 0.699-1.437 0.024-0.107 0.13-0.176 0.238-0.153s0.176 0.127 0.155 0.235c-0.009 0.044-0.106 0.46-0.794 1.642-0.467 0.802-1.009 1.347-1.334 1.632zM0.633 19.943c0.102 0.229 0.375 0.784 0.849 1.337s1.026 0.956 1.262 1.116l0.75-0.604c-0.275-0.211-0.715-0.554-0.996-0.796-0.744-0.639-1.279-1.375-1.301-1.406-0.009-0.013-0.017-0.026-0.023-0.040-0.023-0.031-0.052-0.071-0.086-0.122l-0.455 0.514zM1.966 19.902c0.211 0.24 0.485 0.526 0.793 0.791 0.188 0.162 0.456 0.375 0.694 0.561-0.009-0.147 0.011-0.299 0.061-0.449 0.059-0.177 0.153-0.33 0.273-0.453-0.69-0.116-1.354-0.302-1.82-0.45zM1.502 19.321c0.274 0.101 1.638 0.582 2.893 0.709 0.078-0.014 0.16-0.021 0.243-0.019 0.387 0.007 0.757-0.020 1.099-0.083 1.256-0.23 2.075-0.918 2.564-1.33 0.086-0.073 0.164-0.137 0.232-0.191 0.022-0.017 0.044-0.034 0.066-0.051 0.346-0.334 0.682-0.715 1.003-1.139 1.271-1.678 1.192-2.48 1.154-2.865l-0.005-0.056c-0.009-0.1-0.065-0.28-0.124-0.471-0.154-0.497-0.365-1.177-0.165-1.679 0.184-0.463 0.652-0.505 1.104-0.545 0.324-0.029 0.66-0.059 0.922-0.232 0.56-0.372 0.278-1.33 0.023-1.837-0.101-0.2-0.225-0.351-0.335-0.484-0.188-0.228-0.382-0.463-0.293-0.819 0.057-0.227 0.214-0.374 0.366-0.515 0.193-0.18 0.359-0.335 0.351-0.657-0.008-0.319-0.098-0.352-0.261-0.414-0.11-0.041-0.246-0.092-0.347-0.227-0.18-0.239-0.077-0.441-0.002-0.589 0.054-0.106 0.104-0.206 0.102-0.356-0.003-0.188-0.293-0.492-0.555-0.704-0.204 0.239-0.679 0.662-1.738 1.136-0.605 0.271-1.061 0.326-1.545 0.384-0.756 0.091-1.614 0.195-3.352 1.198-2.042 1.179-2.908 2.677-3.425 3.573-0.067 0.115-0.127 0.219-0.182 0.309-0.044 0.072-0.126 0.24-0.191 0.375-0.047 0.098-0.091 0.188-0.121 0.244-0.448 0.837-0.639 1.944-0.567 3.293 0.3-1.011 0.912-2.514 2.125-3.911 2.032-2.342 5.981-3.62 6.148-3.673 0.106-0.033 0.218 0.025 0.252 0.13s-0.025 0.218-0.13 0.252c-0.038 0.012-3.627 1.174-5.663 3.227 0.395 0.13 1.311 0.391 1.948 0.245 0.262-0.060 0.489-0.117 0.688-0.167 0.494-0.124 0.852-0.214 1.272-0.231 0.003-0 0.005-0 0.008-0 0.107 0 0.196 0.085 0.2 0.193 0.004 0.111-0.082 0.204-0.192 0.208-0.361 0.014-0.686 0.092-1.123 0.202l0.39 0.375c0.080 0.077 0.082 0.204 0.006 0.284s-0.203 0.083-0.283 0.006l-0.573-0.55c-0.096 0.023-0.197 0.047-0.304 0.072-0.872 0.199-2.099-0.228-2.336-0.315-0.002 0.002-0.003 0.004-0.005 0.006-0.651 0.75-1.122 1.539-1.462 2.259 0.534-0.291 1.406-0.666 1.961-0.389 0.369 0.184 0.649 0.515 0.921 0.836 0.297 0.35 0.577 0.681 0.944 0.806 0.105 0.036 0.161 0.149 0.126 0.254s-0.149 0.161-0.254 0.126c-0.472-0.16-0.802-0.55-1.121-0.926-0.116-0.137-0.229-0.27-0.345-0.389-0.084 0.261-0.224 0.754-0.229 1.156-0.006 0.573 0.279 1.385 0.282 1.393 0.037 0.104-0.017 0.219-0.122 0.256s-0.219-0.017-0.256-0.122c-0.013-0.036-0.313-0.887-0.306-1.532 0.006-0.566 0.236-1.25 0.3-1.43-0.039-0.025-0.079-0.048-0.12-0.069-0.5-0.25-1.648 0.391-2.011 0.635-0.014 0.009-0.028 0.017-0.043 0.022-0.452 1.142-0.562 1.988-0.564 2.003-0 0.002-0 0.004-0.001 0.006 0.276 1.816 0.829 2.628 0.959 2.798zM9.436 18.055c0.433 0.011 1.073 0.083 1.773 0.354 0.674 0.261 1.152 0.324 1.422 0.187 0.15-0.076 0.253-0.225 0.314-0.454 0.056-0.208 0.094-0.388 0.13-0.562 0.088-0.417 0.164-0.778 0.432-1.165 0.226-0.327 0.54-0.246 0.728-0.197 0.081 0.021 0.173 0.045 0.205 0.024 0.013-0.008 0.080-0.065 0.126-0.346 0.079-0.481-0.072-0.977-0.194-1.375-0.113-0.369-0.194-0.636-0.083-0.836 0.034-0.061 0.103-0.142 0.235-0.177 0.23-0.061 0.425 0.002 0.582 0.053 0.219 0.071 0.271 0.088 0.395-0.124 0.105-0.181 0.097-0.415 0.088-0.662-0.013-0.381-0.030-0.85 0.415-1.186-0.146-0.264-0.675-1.164-1.479-1.869-0.845-0.742-1.968-1.309-2.24-1.441-0.007 0.015-0.012 0.030-0.016 0.046-0.037 0.146 0.022 0.233 0.214 0.465 0.117 0.142 0.263 0.318 0.384 0.559 0.391 0.777 0.584 1.858-0.159 2.352-0.346 0.23-0.751 0.266-1.107 0.298-0.431 0.038-0.679 0.071-0.767 0.294-0.147 0.37 0.040 0.973 0.176 1.413 0.069 0.221 0.128 0.412 0.14 0.554l0.005 0.053c0.043 0.437 0.132 1.344-1.234 3.147-0.159 0.209-0.321 0.408-0.486 0.597z"></path>
<path fill="#dfe2eb" style="fill: var(--color1, #dfe2eb)" d="M41.239 9.318c0 0.896-0.194 1.774-0.581 2.63-0.447 0.987-0.996 1.934-1.631 2.817-0.028 0.039-0.057 0.075-0.089 0.109l0.764 0.949c0.053 0.066 0.059 0.158 0.015 0.23-0.020 0.033-0.503 0.813-1.274 1.474-0.774 0.663-1.534 0.954-1.566 0.966-0.069 0.026-0.148 0.012-0.204-0.037l-0.66-0.583c-0.016-0.014-0.029-0.031-0.040-0.048-0.581 0.298-1.661 0.698-3.44 0.843-1.575 0.128-2.867-0.072-3.839-0.592-0.052-0.028-0.137-0.069-0.229-0.114-0.158-0.076-0.32-0.155-0.409-0.21-0.088-0.054-0.189-0.112-0.301-0.177-0.869-0.502-2.487-1.436-3.719-3.571-1.045-1.809-1.153-2.71-1.249-3.504-0.057-0.473-0.106-0.88-0.352-1.43-0.625-1.397-1.137-1.676-1.142-1.679-0.051-0.027-0.090-0.075-0.104-0.131s-0.005-0.116 0.028-0.163c0.101-0.146 0.632-0.877 1.146-0.885 0.249-0.004 0.419 0.082 0.543 0.145 0.128 0.065 0.13 0.062 0.167 0.035 0.039-0.029 0.060-0.083 0.092-0.167 0.076-0.202 0.191-0.507 0.78-0.521 0.469-0.011 0.732 0.236 0.921 0.438 0.199-0.398 0.741-1.419 1.452-2.229 0.459-0.523 0.996-0.934 1.364-1.186 0.282-0.192 0.467-0.308 0.595-0.374-0.14-0.258-0.2-0.433-0.247-0.57-0.055-0.16-0.085-0.248-0.214-0.387-0.427-0.461-0.091-1.213-0.028-1.304 0.036-0.051 0.091-0.085 0.153-0.092 0.115-0.013 0.186 0.053 0.315 0.172 0.215 0.198 0.661 0.611 1.419 0.809 0.679 0.177 1.468 0.14 2.165 0.108 0.44-0.021 0.855-0.040 1.183-0 1.073 0.129 3.305 0.399 5.14 2.044 0.878 0.787 1.644 1.774 2.182 2.796 0.014 0.018 0.024 0.038 0.031 0.059 0.13 0.252 0.246 0.506 0.347 0.759 0.344 0.868 0.516 1.727 0.516 2.571zM40.725 10.418c0.281-1.497-0.055-2.954-0.698-4.225-0.179-0.088-0.78-0.343-1.687-0.324-1.070 0.022-1.408 0.207-1.411 0.209-0.095 0.054-0.217 0.023-0.273-0.070s-0.029-0.213 0.063-0.271c0.040-0.025 0.421-0.244 1.612-0.268 0.591-0.012 1.063 0.080 1.396 0.181-0.516-0.862-1.163-1.619-1.831-2.217-0.346-0.311-0.709-0.57-1.075-0.786-0.179 0.073-0.698 0.238-1.568 0.149-1.014-0.104-1.567-0.143-1.572-0.143-0.111-0.008-0.193-0.105-0.186-0.214 0.007-0.111 0.103-0.194 0.214-0.186 0.006 0 0.564 0.039 1.586 0.144 0.446 0.046 0.785 0.018 1.019-0.024-1.312-0.64-2.605-0.796-3.337-0.885-0.295-0.035-0.694-0.017-1.116 0.003-0.725 0.034-1.547 0.073-2.285-0.12-0.789-0.206-1.273-0.613-1.53-0.847-0.049 0.187-0.074 0.45 0.067 0.602 0.186 0.201 0.238 0.353 0.299 0.529 0.057 0.167 0.128 0.374 0.351 0.734 0.206 0.333 0.476 0.341 0.9 0.326 0.28-0.010 0.598-0.021 0.879 0.143 0.491 0.286 0.378 0.634 0.304 0.864-0.040 0.125-0.076 0.233-0.049 0.346 0.087 0.011 0.329-0.063 0.51-0.118 0.415-0.126 0.983-0.299 1.556-0.206 0.32 0.052 0.516 0.148 0.617 0.302 0.117 0.179 0.068 0.37 0.029 0.524-0.052 0.202-0.047 0.241 0.037 0.299 0.321 0.222 0.614 0.284 1.020 0.369 0.171 0.036 0.365 0.077 0.583 0.136 0.341 0.091 0.579 0.266 0.708 0.52 0.196 0.386 0.142 0.941-0.17 1.748-0.263 0.68-0.324 1.299-0.328 1.698 0 0.002 0 0.004 0 0.006 0 0.174 0.081 0.331 0.209 0.504 1.11 1.157 1.736 2.43 1.793 3.685 0.011 0.242 0.002 0.498-0.022 0.757 0.071 0.282 0.289 0.452 0.498 0.521 0.26 0.086 0.624 0.058 0.868-0.281 0.62-0.861 1.155-1.785 1.591-2.748 0.132-0.291 0.237-0.582 0.318-0.872-0.097-0.128-0.567-0.72-1.378-1.266-0.096 0.042-0.675 0.289-1.188 0.319-0.256 0.015-0.585 0.023-0.699-0.019l0.141-0.375c0 0-0.005-0.002-0.017-0.005 0.005 0.001 0.118 0.025 0.551-0 0.269-0.016 0.572-0.106 0.785-0.182-1.057-0.609-1.433-0.699-1.437-0.699-0.107-0.024-0.176-0.13-0.153-0.238s0.127-0.176 0.235-0.155c0.044 0.009 0.46 0.106 1.642 0.794 0.802 0.467 1.347 1.009 1.632 1.334zM36.845 18.072c0.229-0.102 0.784-0.375 1.337-0.849s0.956-1.026 1.116-1.262l-0.604-0.75c-0.211 0.275-0.554 0.715-0.796 0.996-0.639 0.743-1.375 1.279-1.406 1.301-0.013 0.009-0.026 0.017-0.040 0.023-0.031 0.023-0.071 0.052-0.122 0.086l0.514 0.455zM36.804 16.739c0.24-0.211 0.526-0.485 0.791-0.793 0.162-0.188 0.375-0.456 0.561-0.694-0.147 0.009-0.299-0.011-0.448-0.061-0.176-0.059-0.33-0.153-0.453-0.273-0.116 0.69-0.302 1.354-0.45 1.82zM36.222 17.202c0.1-0.274 0.582-1.638 0.709-2.893-0.014-0.078-0.021-0.16-0.019-0.243 0.007-0.387-0.020-0.757-0.083-1.099-0.23-1.256-0.918-2.075-1.33-2.564-0.073-0.086-0.137-0.164-0.192-0.232-0.017-0.022-0.034-0.044-0.051-0.066-0.334-0.346-0.715-0.682-1.139-1.003-1.678-1.271-2.48-1.192-2.865-1.154l-0.056 0.005c-0.1 0.009-0.28 0.065-0.471 0.124-0.497 0.154-1.177 0.365-1.679 0.165-0.464-0.184-0.505-0.652-0.546-1.104-0.029-0.324-0.059-0.66-0.232-0.922-0.372-0.56-1.33-0.278-1.837-0.023-0.2 0.101-0.351 0.225-0.484 0.335-0.228 0.188-0.463 0.382-0.819 0.293-0.227-0.057-0.374-0.214-0.515-0.366-0.18-0.193-0.335-0.359-0.657-0.351-0.319 0.008-0.352 0.098-0.414 0.261-0.041 0.109-0.092 0.246-0.227 0.346-0.239 0.179-0.441 0.077-0.589 0.002-0.106-0.054-0.206-0.104-0.355-0.102-0.188 0.003-0.492 0.293-0.704 0.555 0.239 0.204 0.662 0.679 1.136 1.738 0.27 0.605 0.326 1.061 0.384 1.545 0.091 0.756 0.195 1.614 1.198 3.352 1.179 2.042 2.677 2.908 3.572 3.425 0.115 0.067 0.219 0.127 0.309 0.182 0.072 0.044 0.24 0.125 0.375 0.191 0.098 0.047 0.188 0.091 0.244 0.121 0.837 0.448 1.944 0.639 3.293 0.567-1.011-0.3-2.514-0.912-3.911-2.125-2.342-2.032-3.62-5.981-3.673-6.148-0.033-0.106 0.025-0.218 0.13-0.252s0.218 0.025 0.252 0.13c0.012 0.038 1.174 3.627 3.227 5.663 0.13-0.395 0.391-1.311 0.245-1.948-0.060-0.262-0.117-0.489-0.167-0.688-0.124-0.494-0.214-0.852-0.231-1.272-0-0.003-0-0.005-0-0.008 0-0.107 0.085-0.196 0.193-0.2 0.111-0.004 0.204 0.082 0.208 0.192 0.014 0.361 0.092 0.687 0.202 1.123l0.375-0.39c0.077-0.080 0.204-0.082 0.284-0.006s0.082 0.203 0.006 0.283l-0.55 0.573c0.023 0.096 0.047 0.197 0.072 0.304 0.199 0.872-0.228 2.099-0.315 2.336 0.002 0.002 0.004 0.003 0.005 0.005 0.75 0.651 1.539 1.122 2.259 1.462-0.291-0.534-0.666-1.406-0.389-1.961 0.184-0.369 0.515-0.649 0.836-0.921 0.35-0.297 0.681-0.577 0.806-0.944 0.035-0.105 0.149-0.161 0.254-0.126s0.161 0.149 0.126 0.254c-0.16 0.472-0.549 0.802-0.926 1.121-0.137 0.116-0.27 0.229-0.389 0.345 0.261 0.084 0.754 0.224 1.156 0.229 0.573 0.006 1.385-0.279 1.393-0.282 0.104-0.037 0.219 0.017 0.256 0.121s-0.017 0.219-0.122 0.256c-0.036 0.013-0.887 0.313-1.532 0.306-0.566-0.006-1.25-0.236-1.43-0.3-0.025 0.039-0.048 0.079-0.069 0.12-0.249 0.5 0.391 1.648 0.635 2.011 0.009 0.014 0.017 0.028 0.022 0.043 1.142 0.453 1.988 0.562 2.003 0.564 0.002 0 0.004 0 0.006 0.001 1.816-0.276 2.628-0.829 2.798-0.959zM34.956 9.268c0.011-0.433 0.083-1.073 0.354-1.773 0.261-0.674 0.324-1.152 0.187-1.422-0.076-0.15-0.225-0.253-0.454-0.314-0.208-0.056-0.388-0.094-0.562-0.13-0.417-0.088-0.778-0.164-1.165-0.432-0.327-0.226-0.246-0.54-0.197-0.728 0.021-0.081 0.045-0.173 0.024-0.205-0.009-0.013-0.065-0.080-0.346-0.126-0.481-0.079-0.977 0.072-1.375 0.194-0.369 0.112-0.636 0.194-0.836 0.083-0.061-0.034-0.142-0.103-0.177-0.235-0.061-0.231 0.002-0.425 0.053-0.582 0.071-0.219 0.088-0.271-0.124-0.395-0.18-0.105-0.415-0.097-0.663-0.088-0.381 0.013-0.85 0.030-1.186-0.415-0.264 0.146-1.164 0.675-1.869 1.479-0.742 0.845-1.309 1.968-1.441 2.24 0.015 0.007 0.030 0.012 0.046 0.016 0.146 0.037 0.233-0.022 0.465-0.214 0.142-0.117 0.319-0.263 0.559-0.384 0.777-0.391 1.858-0.584 2.352 0.159 0.23 0.346 0.266 0.751 0.298 1.107 0.038 0.431 0.071 0.679 0.294 0.767 0.37 0.147 0.973-0.040 1.413-0.176 0.221-0.069 0.412-0.128 0.554-0.14l0.052-0.005c0.436-0.043 1.344-0.132 3.148 1.234 0.209 0.159 0.408 0.321 0.597 0.486z"></path>
<path fill="#f5f6fb" style="fill: var(--color2, #f5f6fb)" d="M16.225 30.423c0 0.871-3.38 1.577-7.549 1.577s-7.549-0.706-7.549-1.577c0-0.871 3.38-1.577 7.549-1.577s7.549 0.706 7.549 1.577z"></path>
<path fill="#f5f6fb" style="fill: var(--color2, #f5f6fb)" d="M41.239 26.817c0 0.871-3.38 1.577-7.549 1.577s-7.549-0.706-7.549-1.577c0-0.871 3.38-1.577 7.549-1.577s7.549 0.706 7.549 1.577z"></path>
</symbol>

<symbol id="icon-KapustaTopMobile" viewBox="0 0 12 32">
<path fill="#dfe2eb" style="fill: var(--color1, #dfe2eb)" d="M14.866 0c1.429-0 2.831 0.309 4.196 0.927 1.574 0.713 3.086 1.589 4.494 2.602 0.062 0.044 0.12 0.091 0.174 0.141l1.514-1.219c0.105-0.085 0.252-0.094 0.367-0.024 0.052 0.032 1.298 0.802 2.352 2.033 1.058 1.235 1.522 2.448 1.541 2.499 0.042 0.111 0.019 0.236-0.060 0.325l-0.931 1.053c-0.023 0.026-0.049 0.047-0.077 0.063 0.476 0.926 1.114 2.65 1.345 5.488 0.204 2.513-0.114 4.574-0.945 6.125-0.044 0.083-0.11 0.219-0.181 0.366-0.122 0.251-0.248 0.511-0.334 0.653-0.085 0.14-0.179 0.301-0.282 0.48-0.801 1.387-2.292 3.967-5.698 5.934-2.887 1.667-4.323 1.84-5.591 1.993-0.754 0.091-1.405 0.17-2.281 0.562-2.229 0.998-2.675 1.814-2.679 1.823-0.043 0.081-0.119 0.143-0.208 0.165s-0.184 0.008-0.26-0.044c-0.234-0.162-1.399-1.009-1.412-1.828-0.006-0.397 0.131-0.669 0.232-0.867 0.103-0.203 0.099-0.208 0.056-0.266-0.047-0.062-0.132-0.096-0.267-0.147-0.322-0.121-0.808-0.304-0.831-1.244-0.018-0.749 0.377-1.167 0.698-1.47-0.635-0.317-2.264-1.183-3.557-2.316-0.835-0.732-1.489-1.588-1.892-2.177-0.307-0.449-0.492-0.746-0.597-0.949-0.412 0.223-0.692 0.319-0.909 0.394-0.255 0.087-0.396 0.136-0.617 0.341-0.735 0.682-1.935 0.146-2.080 0.045-0.082-0.057-0.135-0.146-0.146-0.245-0.020-0.183 0.084-0.297 0.275-0.503 0.316-0.342 0.974-1.055 1.29-2.264 0.283-1.084 0.224-2.343 0.172-3.453-0.033-0.701-0.064-1.364-0.001-1.887 0.206-1.712 0.636-5.274 3.261-8.201 1.255-1.4 2.831-2.623 4.461-3.481 0.028-0.022 0.060-0.038 0.093-0.049 0.402-0.208 0.807-0.393 1.211-0.553 1.385-0.549 2.755-0.824 4.102-0.824zM16.622 0.82c-2.388-0.448-4.714 0.089-6.74 1.114-0.14 0.286-0.547 1.244-0.517 2.693 0.036 1.707 0.331 2.246 0.334 2.251 0.086 0.151 0.037 0.347-0.112 0.436s-0.341 0.046-0.433-0.101c-0.040-0.063-0.389-0.672-0.428-2.572-0.020-0.943 0.128-1.696 0.288-2.227-1.376 0.823-2.583 1.856-3.538 2.921-0.496 0.553-0.909 1.131-1.255 1.716 0.117 0.286 0.38 1.113 0.237 2.502-0.167 1.617-0.228 2.5-0.228 2.508-0.012 0.176-0.167 0.308-0.341 0.297-0.176-0.012-0.309-0.165-0.297-0.341 0.001-0.009 0.063-0.9 0.23-2.53 0.073-0.712 0.029-1.253-0.038-1.626-1.022 2.092-1.271 4.156-1.411 5.324-0.057 0.47-0.027 1.107 0.005 1.78 0.054 1.157 0.116 2.468-0.192 3.645-0.329 1.259-0.977 2.031-1.352 2.442 0.298 0.078 0.718 0.119 0.96-0.107 0.32-0.297 0.563-0.381 0.844-0.477 0.266-0.091 0.596-0.204 1.172-0.56 0.531-0.329 0.544-0.759 0.52-1.435-0.016-0.447-0.033-0.954 0.228-1.402 0.456-0.783 1.012-0.603 1.379-0.485 0.199 0.064 0.372 0.12 0.552 0.078 0.017-0.138-0.101-0.526-0.189-0.814-0.202-0.662-0.478-1.569-0.328-2.484 0.084-0.511 0.237-0.824 0.482-0.984 0.286-0.187 0.591-0.109 0.836-0.046 0.322 0.083 0.384 0.075 0.477-0.059 0.354-0.512 0.452-0.98 0.589-1.627 0.058-0.273 0.123-0.582 0.216-0.93 0.145-0.543 0.424-0.924 0.829-1.13 0.615-0.313 1.502-0.227 2.788 0.271 1.085 0.42 2.072 0.517 2.709 0.524 0.003 0 0.007 0 0.010 0 0.278 0 0.529-0.13 0.804-0.333 1.845-1.771 3.878-2.77 5.88-2.861 0.387-0.017 0.794-0.003 1.207 0.035 0.45-0.113 0.721-0.461 0.832-0.794 0.138-0.414 0.092-0.995-0.448-1.385-1.374-0.989-2.849-1.844-4.384-2.539-0.464-0.21-0.929-0.378-1.392-0.507-0.204 0.154-1.149 0.904-2.020 2.198 0.067 0.153 0.461 1.076 0.508 1.895 0.024 0.408 0.037 0.933-0.031 1.115l-0.598-0.225c0 0-0.004 0.007-0.008 0.026 0.002-0.007 0.040-0.188-0-0.879-0.025-0.429-0.169-0.913-0.29-1.252-0.972 1.686-1.115 2.287-1.116 2.293-0.039 0.171-0.208 0.28-0.379 0.244s-0.281-0.203-0.247-0.375c0.014-0.070 0.169-0.734 1.267-2.62 0.745-1.279 1.611-2.15 2.128-2.604zM28.833 7.012c-0.163-0.366-0.599-1.252-1.355-2.134s-1.637-1.525-2.014-1.781l-1.196 0.963c0.438 0.337 1.141 0.884 1.59 1.27 1.186 1.020 2.041 2.194 2.076 2.244 0.015 0.020 0.027 0.042 0.036 0.064 0.037 0.049 0.083 0.114 0.137 0.195l0.725-0.821zM26.706 7.077c-0.337-0.382-0.774-0.84-1.265-1.262-0.3-0.258-0.728-0.599-1.107-0.895 0.014 0.235-0.017 0.477-0.097 0.716-0.093 0.282-0.244 0.526-0.436 0.723 1.101 0.185 2.16 0.482 2.904 0.718zM27.446 8.005c-0.438-0.16-2.614-0.928-4.616-1.13-0.125 0.023-0.255 0.033-0.387 0.031-0.618-0.011-1.208 0.033-1.754 0.132-2.004 0.367-3.311 1.465-4.091 2.122-0.137 0.116-0.261 0.219-0.371 0.305-0.035 0.027-0.070 0.054-0.105 0.081-0.552 0.534-1.088 1.141-1.601 1.818-2.028 2.677-1.902 3.957-1.842 4.572l0.009 0.089c0.014 0.159 0.103 0.447 0.198 0.752 0.245 0.793 0.582 1.878 0.264 2.679-0.293 0.739-1.040 0.806-1.761 0.87-0.518 0.046-1.053 0.094-1.47 0.371-0.894 0.594-0.444 2.122-0.036 2.931 0.161 0.32 0.359 0.56 0.534 0.772 0.3 0.363 0.61 0.739 0.468 1.306-0.091 0.362-0.341 0.596-0.583 0.822-0.307 0.287-0.573 0.535-0.56 1.048 0.012 0.508 0.156 0.562 0.416 0.66 0.175 0.066 0.392 0.147 0.553 0.362 0.286 0.381 0.123 0.704 0.003 0.94-0.086 0.169-0.167 0.329-0.163 0.567 0.004 0.3 0.468 0.786 0.885 1.123 0.325-0.381 1.084-1.056 2.774-1.813 0.965-0.432 1.694-0.52 2.465-0.613 1.207-0.146 2.574-0.311 5.348-1.912 3.258-1.881 4.639-4.271 5.464-5.7 0.106-0.184 0.202-0.349 0.29-0.493 0.070-0.115 0.2-0.383 0.304-0.598 0.076-0.156 0.146-0.3 0.193-0.389 0.715-1.336 1.019-3.101 0.905-5.254-0.479 1.613-1.456 4.012-3.39 6.241-3.242 3.737-9.542 5.776-9.809 5.861-0.169 0.053-0.348-0.040-0.401-0.208s0.039-0.348 0.207-0.402c0.061-0.019 5.787-1.874 9.036-5.149-0.63-0.208-2.091-0.623-3.108-0.391-0.418 0.096-0.779 0.186-1.098 0.266-0.789 0.198-1.359 0.342-2.030 0.368-0.004 0-0.009 0-0.013 0-0.171 0-0.313-0.135-0.319-0.308-0.007-0.177 0.13-0.326 0.307-0.332 0.576-0.023 1.095-0.147 1.792-0.322l-0.623-0.598c-0.127-0.123-0.132-0.325-0.009-0.453s0.325-0.132 0.452-0.009l0.914 0.878c0.153-0.037 0.314-0.075 0.485-0.114 1.391-0.317 3.349 0.363 3.727 0.502 0.003-0.003 0.005-0.006 0.008-0.009 1.038-1.196 1.791-2.455 2.333-3.604-0.852 0.464-2.244 1.063-3.129 0.621-0.588-0.294-1.036-0.823-1.469-1.334-0.473-0.559-0.92-1.087-1.506-1.285-0.167-0.057-0.257-0.238-0.2-0.406s0.238-0.257 0.405-0.2c0.754 0.255 1.28 0.877 1.789 1.478 0.185 0.218 0.365 0.431 0.551 0.621 0.134-0.416 0.358-1.202 0.365-1.844 0.010-0.914-0.446-2.209-0.45-2.222-0.059-0.167 0.028-0.35 0.194-0.409s0.349 0.027 0.408 0.194c0.020 0.057 0.499 1.414 0.487 2.444-0.010 0.904-0.377 1.994-0.479 2.282 0.062 0.041 0.126 0.077 0.191 0.11 0.798 0.398 2.63-0.623 3.209-1.013 0.022-0.015 0.045-0.026 0.069-0.035 0.722-1.822 0.897-3.172 0.9-3.196 0-0.003 0.001-0.006 0.001-0.009-0.441-2.897-1.322-4.193-1.53-4.464zM14.787 10.025c-0.691-0.017-1.712-0.133-2.829-0.565-1.075-0.417-1.838-0.517-2.268-0.298-0.24 0.122-0.403 0.359-0.501 0.724-0.089 0.331-0.149 0.619-0.208 0.897-0.141 0.666-0.262 1.241-0.689 1.859-0.36 0.522-0.862 0.392-1.162 0.315-0.13-0.033-0.277-0.071-0.327-0.038-0.021 0.013-0.127 0.103-0.201 0.551-0.125 0.768 0.115 1.558 0.309 2.193 0.179 0.589 0.309 1.015 0.132 1.333-0.055 0.098-0.164 0.227-0.375 0.282-0.368 0.097-0.678-0.003-0.928-0.084-0.35-0.113-0.433-0.14-0.63 0.198-0.168 0.288-0.155 0.662-0.141 1.057 0.021 0.609 0.047 1.356-0.663 1.893 0.232 0.421 1.077 1.857 2.359 2.982 1.349 1.184 3.14 2.088 3.574 2.3 0.011-0.024 0.019-0.048 0.025-0.073 0.058-0.233-0.036-0.372-0.341-0.743-0.187-0.226-0.419-0.508-0.612-0.892-0.623-1.239-0.931-2.965 0.254-3.752 0.553-0.367 1.198-0.424 1.767-0.475 0.687-0.061 1.083-0.113 1.224-0.469 0.235-0.591-0.063-1.552-0.28-2.254-0.109-0.353-0.204-0.658-0.224-0.884l-0.008-0.084c-0.069-0.696-0.211-2.145 1.968-5.022 0.253-0.334 0.512-0.651 0.775-0.952z"></path>
</symbol>
<symbol id="icon-KapustaBottomMobile" viewBox="0 0 30 32">
<path fill="#dfe2eb" style="fill: var(--color1, #dfe2eb)" d="M14.976 32c-1.429 0-2.831-0.309-4.196-0.927-1.574-0.713-3.086-1.589-4.494-2.602-0.062-0.044-0.12-0.091-0.174-0.141l-1.514 1.219c-0.105 0.085-0.252 0.094-0.367 0.024-0.052-0.032-1.298-0.802-2.352-2.033-1.058-1.235-1.522-2.448-1.541-2.499-0.042-0.111-0.019-0.236 0.060-0.325l0.931-1.053c0.023-0.026 0.049-0.047 0.077-0.063-0.476-0.926-1.114-2.65-1.345-5.488-0.204-2.513 0.114-4.574 0.945-6.125 0.044-0.083 0.11-0.219 0.181-0.366 0.122-0.251 0.248-0.511 0.334-0.653 0.085-0.14 0.179-0.301 0.282-0.48 0.801-1.387 2.292-3.967 5.698-5.934 2.887-1.667 4.323-1.84 5.591-1.993 0.754-0.091 1.405-0.17 2.281-0.562 2.229-0.998 2.675-1.815 2.679-1.823 0.043-0.081 0.119-0.143 0.208-0.165s0.184-0.008 0.26 0.044c0.234 0.162 1.399 1.009 1.412 1.828 0.006 0.397-0.131 0.669-0.232 0.867-0.103 0.203-0.099 0.208-0.056 0.266 0.047 0.062 0.132 0.096 0.267 0.147 0.322 0.121 0.808 0.304 0.831 1.244 0.018 0.749-0.377 1.167-0.698 1.47 0.635 0.317 2.264 1.183 3.557 2.316 0.835 0.732 1.489 1.588 1.892 2.177 0.307 0.449 0.492 0.746 0.597 0.949 0.412-0.223 0.692-0.319 0.909-0.394 0.255-0.087 0.396-0.136 0.617-0.341 0.735-0.682 1.935-0.146 2.080-0.045 0.082 0.057 0.135 0.146 0.146 0.245 0.020 0.183-0.084 0.297-0.275 0.503-0.316 0.342-0.974 1.055-1.29 2.264-0.283 1.084-0.224 2.343-0.172 3.453 0.033 0.701 0.064 1.364 0.001 1.887-0.206 1.712-0.636 5.274-3.261 8.201-1.255 1.4-2.831 2.623-4.461 3.481-0.028 0.022-0.060 0.038-0.093 0.049-0.402 0.208-0.807 0.393-1.211 0.553-1.385 0.549-2.755 0.824-4.102 0.824zM13.221 31.18c2.388 0.448 4.714-0.089 6.74-1.114 0.14-0.286 0.547-1.244 0.517-2.693-0.035-1.707-0.331-2.246-0.334-2.251-0.086-0.151-0.037-0.347 0.112-0.436s0.341-0.046 0.433 0.101c0.040 0.063 0.389 0.672 0.428 2.572 0.020 0.943-0.128 1.696-0.288 2.227 1.376-0.823 2.583-1.856 3.538-2.921 0.496-0.553 0.909-1.131 1.255-1.716-0.117-0.286-0.38-1.113-0.237-2.502 0.167-1.617 0.228-2.5 0.228-2.508 0.012-0.176 0.167-0.308 0.341-0.297 0.176 0.012 0.309 0.165 0.297 0.341-0.001 0.009-0.063 0.9-0.23 2.53-0.073 0.712-0.029 1.253 0.038 1.626 1.022-2.092 1.271-4.156 1.411-5.324 0.057-0.47 0.027-1.107-0.005-1.78-0.054-1.157-0.116-2.468 0.192-3.645 0.329-1.259 0.977-2.031 1.352-2.442-0.298-0.078-0.718-0.119-0.96 0.107-0.32 0.297-0.563 0.38-0.844 0.477-0.266 0.091-0.596 0.204-1.172 0.56-0.531 0.329-0.544 0.759-0.52 1.435 0.016 0.447 0.033 0.954-0.228 1.402-0.456 0.783-1.012 0.603-1.379 0.485-0.199-0.064-0.372-0.12-0.552-0.078-0.017 0.138 0.101 0.526 0.189 0.814 0.202 0.662 0.478 1.569 0.328 2.484-0.084 0.511-0.237 0.824-0.482 0.984-0.286 0.187-0.591 0.109-0.836 0.046-0.322-0.083-0.384-0.075-0.477 0.059-0.354 0.512-0.452 0.98-0.589 1.627-0.058 0.273-0.123 0.582-0.216 0.93-0.145 0.543-0.424 0.924-0.829 1.13-0.615 0.313-1.502 0.227-2.788-0.271-1.085-0.42-2.072-0.517-2.709-0.524-0.003 0-0.007 0-0.010 0-0.278 0-0.529 0.13-0.804 0.333-1.845 1.771-3.878 2.77-5.88 2.861-0.387 0.017-0.795 0.003-1.207-0.035-0.45 0.113-0.721 0.461-0.832 0.794-0.138 0.414-0.092 0.995 0.449 1.385 1.374 0.989 2.849 1.844 4.384 2.539 0.464 0.21 0.929 0.378 1.392 0.507 0.204-0.154 1.149-0.904 2.020-2.198-0.067-0.153-0.461-1.076-0.508-1.895-0.024-0.408-0.037-0.933 0.031-1.115l0.598 0.225c0 0 0.004-0.007 0.008-0.026-0.002 0.007-0.040 0.188 0 0.879 0.025 0.429 0.169 0.913 0.29 1.252 0.972-1.686 1.115-2.287 1.116-2.293 0.038-0.171 0.208-0.28 0.379-0.244s0.281 0.203 0.247 0.375c-0.014 0.070-0.169 0.734-1.267 2.62-0.745 1.279-1.611 2.15-2.128 2.604zM1.009 24.988c0.163 0.366 0.599 1.252 1.355 2.134s1.637 1.525 2.014 1.781l1.196-0.963c-0.438-0.337-1.141-0.884-1.59-1.27-1.186-1.020-2.041-2.194-2.076-2.244-0.015-0.020-0.027-0.042-0.036-0.064-0.037-0.049-0.083-0.114-0.137-0.195l-0.725 0.821zM3.136 24.923c0.337 0.382 0.774 0.84 1.265 1.262 0.3 0.258 0.728 0.599 1.107 0.895-0.014-0.235 0.017-0.477 0.097-0.716 0.093-0.282 0.244-0.526 0.436-0.724-1.101-0.185-2.16-0.482-2.904-0.718zM2.397 23.995c0.438 0.16 2.614 0.928 4.616 1.13 0.125-0.023 0.255-0.033 0.387-0.031 0.618 0.011 1.208-0.033 1.754-0.132 2.004-0.367 3.31-1.465 4.091-2.122 0.137-0.116 0.261-0.219 0.371-0.305 0.035-0.027 0.070-0.054 0.105-0.081 0.552-0.534 1.088-1.141 1.601-1.818 2.028-2.677 1.902-3.957 1.842-4.572l-0.009-0.089c-0.014-0.159-0.103-0.447-0.198-0.752-0.245-0.793-0.582-1.878-0.264-2.679 0.293-0.739 1.040-0.806 1.761-0.87 0.518-0.046 1.053-0.094 1.47-0.371 0.894-0.594 0.444-2.122 0.036-2.931-0.161-0.32-0.359-0.56-0.534-0.772-0.3-0.363-0.61-0.739-0.468-1.306 0.091-0.362 0.341-0.596 0.583-0.822 0.307-0.287 0.573-0.535 0.56-1.048-0.012-0.508-0.156-0.562-0.416-0.66-0.175-0.066-0.392-0.147-0.553-0.362-0.286-0.381-0.123-0.704-0.003-0.94 0.086-0.169 0.167-0.329 0.163-0.567-0.004-0.3-0.468-0.786-0.885-1.123-0.325 0.381-1.084 1.056-2.774 1.813-0.965 0.432-1.694 0.52-2.465 0.613-1.207 0.146-2.574 0.311-5.348 1.912-3.258 1.881-4.639 4.271-5.464 5.7-0.106 0.184-0.202 0.349-0.29 0.493-0.071 0.115-0.2 0.383-0.304 0.598-0.076 0.156-0.146 0.3-0.193 0.389-0.715 1.336-1.019 3.101-0.905 5.254 0.479-1.613 1.456-4.012 3.39-6.241 3.242-3.737 9.542-5.776 9.809-5.861 0.169-0.053 0.348 0.040 0.401 0.208s-0.039 0.348-0.207 0.402c-0.061 0.019-5.787 1.874-9.036 5.149 0.63 0.208 2.091 0.623 3.108 0.391 0.418-0.096 0.779-0.186 1.098-0.266 0.789-0.198 1.359-0.342 2.030-0.368 0.004-0 0.009-0 0.013-0 0.171 0 0.313 0.135 0.319 0.308 0.007 0.177-0.13 0.325-0.307 0.332-0.576 0.023-1.095 0.147-1.792 0.322l0.623 0.598c0.127 0.123 0.132 0.325 0.009 0.453s-0.325 0.132-0.452 0.009l-0.914-0.878c-0.153 0.037-0.314 0.075-0.485 0.114-1.391 0.317-3.349-0.363-3.727-0.502-0.003 0.003-0.005 0.006-0.008 0.009-1.038 1.196-1.791 2.455-2.333 3.604 0.852-0.464 2.244-1.063 3.129-0.621 0.588 0.294 1.036 0.822 1.469 1.334 0.473 0.559 0.92 1.087 1.506 1.285 0.167 0.057 0.257 0.238 0.2 0.406s-0.238 0.257-0.405 0.201c-0.754-0.255-1.28-0.877-1.789-1.478-0.185-0.218-0.365-0.431-0.551-0.621-0.134 0.416-0.358 1.202-0.365 1.844-0.010 0.914 0.446 2.209 0.45 2.222 0.059 0.167-0.028 0.35-0.194 0.409s-0.349-0.027-0.408-0.194c-0.020-0.057-0.499-1.414-0.487-2.444 0.010-0.904 0.377-1.994 0.479-2.282-0.062-0.040-0.126-0.077-0.191-0.11-0.798-0.398-2.63 0.623-3.209 1.013-0.022 0.015-0.045 0.026-0.069 0.035-0.722 1.822-0.897 3.172-0.9 3.196-0 0.003-0.001 0.006-0.001 0.009 0.441 2.897 1.322 4.193 1.53 4.464zM15.055 21.975c0.691 0.017 1.712 0.133 2.829 0.565 1.075 0.417 1.838 0.517 2.268 0.298 0.24-0.122 0.403-0.359 0.501-0.724 0.089-0.331 0.149-0.619 0.208-0.897 0.141-0.666 0.262-1.241 0.689-1.859 0.36-0.522 0.862-0.392 1.162-0.315 0.13 0.033 0.277 0.071 0.327 0.038 0.021-0.013 0.127-0.103 0.201-0.551 0.125-0.768-0.115-1.558-0.309-2.193-0.18-0.589-0.309-1.015-0.132-1.333 0.055-0.098 0.164-0.227 0.375-0.282 0.368-0.097 0.678 0.003 0.928 0.084 0.35 0.113 0.433 0.14 0.63-0.198 0.168-0.288 0.155-0.662 0.141-1.057-0.021-0.609-0.047-1.356 0.663-1.893-0.232-0.421-1.077-1.857-2.359-2.982-1.349-1.184-3.14-2.088-3.574-2.3-0.011 0.024-0.019 0.048-0.025 0.073-0.058 0.233 0.035 0.372 0.341 0.743 0.187 0.226 0.419 0.508 0.612 0.892 0.623 1.239 0.931 2.965-0.254 3.752-0.553 0.367-1.198 0.424-1.767 0.475-0.687 0.061-1.083 0.113-1.224 0.469-0.234 0.591 0.063 1.552 0.28 2.254 0.109 0.353 0.204 0.658 0.224 0.884l0.008 0.084c0.069 0.696 0.211 2.145-1.968 5.022-0.253 0.334-0.512 0.651-0.775 0.952z"></path>
</symbol>

</defs>
</svg>
